<svg width="41" height="49" viewBox="0 0 41 49" fill="none" xmlns="http://www.w3.org/2000/svg">
<g opacity="0.3">
<path opacity="0.3" d="M28.2927 10.2002C27.1852 10.1997 26.1232 9.7595 25.3401 8.97637C24.5569 8.19323 24.1167 7.13123 24.1162 6.02371V0.226807H5.45351C4.73756 0.226807 4.02863 0.367848 3.36721 0.64189C2.70579 0.915932 2.10479 1.3176 1.59863 1.82394C1.09248 2.33029 0.691068 2.93139 0.417272 3.59292C0.143475 4.25444 0.00266401 4.96344 0.00293006 5.67939V38.5346C0.00266401 39.2505 0.143475 39.9595 0.417272 40.621C0.691068 41.2825 1.09248 41.8836 1.59863 42.39C2.10479 42.8963 2.70579 43.298 3.36721 43.572C4.02863 43.8461 4.73756 43.9871 5.45351 43.9871H27.8552C28.5711 43.9871 29.2801 43.8461 29.9415 43.572C30.6029 43.298 31.2039 42.8963 31.71 42.39C32.2162 41.8836 32.6176 41.2825 32.8914 40.621C33.1652 39.9595 33.306 39.2505 33.3058 38.5346V10.2023L28.2927 10.2002Z" fill="#00C650"/>
</g>
<path d="M33.3058 10.2002H28.2928C27.1852 10.1997 26.1232 9.7595 25.3401 8.97637C24.557 8.19323 24.1167 7.13123 24.1162 6.02371V0.226807L33.3058 10.2002Z" fill="#00C650"/>
<path d="M37.2591 34.7815H11.9326C10.1361 34.7815 8.67969 36.2379 8.67969 38.0344V45.5854C8.67969 47.3819 10.1361 48.8383 11.9326 48.8383H37.2591C39.0557 48.8383 40.512 47.3819 40.512 45.5854V38.0344C40.512 36.2379 39.0557 34.7815 37.2591 34.7815Z" fill="#00C650"/>
<path d="M17.0613 43.4443V44.9189H15.5361V43.4443H17.0613Z" fill="white"/>
<path d="M21.5881 38.8279V42.9882C21.5881 43.6269 21.4146 44.1178 21.0676 44.4607C20.8739 44.6394 20.6462 44.7771 20.3981 44.8659C20.15 44.9546 19.8865 44.9925 19.6234 44.9772C19.3353 44.9927 19.047 44.9509 18.7751 44.8542C18.5033 44.7576 18.2532 44.608 18.0395 44.4141C17.6493 44.0374 17.4535 43.4973 17.4521 42.7938H18.9085C18.9085 43.3629 19.1252 43.6465 19.5546 43.6465C19.9293 43.6465 20.1156 43.4277 20.1156 42.9923V38.8319L21.5881 38.8279Z" fill="white"/>
<path d="M24.0311 42.7819V44.9187H22.5586V38.8281H24.9446C25.667 38.8281 26.2179 39.007 26.5974 39.3649C26.7894 39.553 26.9394 39.7797 27.0375 40.0301C27.1356 40.2804 27.1796 40.5486 27.1665 40.8172C27.1721 41.1711 27.0848 41.5202 26.9134 41.8299C26.737 42.1318 26.4747 42.3744 26.1599 42.5266C25.7807 42.7066 25.3642 42.7941 24.9446 42.7819H24.0311ZM25.6677 40.8172C25.6677 40.277 25.372 40.007 24.7805 40.007H24.0311V41.5929H24.7805C25.372 41.5983 25.6677 41.3397 25.6677 40.8172Z" fill="white"/>
<path d="M32.6301 39.3181C33.1205 39.6869 33.4504 40.23 33.5517 40.8352H31.9921C31.8865 40.6232 31.72 40.4476 31.514 40.3308C31.282 40.193 31.0161 40.1229 30.7464 40.1283C30.5369 40.1198 30.3282 40.1574 30.135 40.2386C29.9417 40.3199 29.7687 40.4426 29.6283 40.5982C29.3312 40.9525 29.1799 41.4065 29.205 41.8682C29.205 42.4475 29.3528 42.8924 29.6486 43.203C29.8149 43.3642 30.013 43.489 30.2303 43.5692C30.4476 43.6494 30.6793 43.6833 30.9104 43.6688C31.2409 43.6748 31.5644 43.5732 31.832 43.3792C32.1053 43.1751 32.3027 42.8857 32.3931 42.5568H30.5316V41.4975H33.6245V42.9538C33.5064 43.3164 33.3193 43.6527 33.0736 43.9443C32.8075 44.2585 32.4765 44.5114 32.1034 44.6856C31.6816 44.8805 31.2211 44.9775 30.7565 44.9692C30.1913 44.984 29.6323 44.8491 29.1361 44.5783C28.6822 44.3229 28.3126 43.9407 28.0727 43.4784C27.815 42.9779 27.6862 42.4209 27.698 41.8581C27.6879 41.2986 27.8166 40.7453 28.0727 40.2478C28.3122 39.7865 28.6801 39.4046 29.1321 39.148C29.621 38.8792 30.1723 38.7443 30.7301 38.757C31.4082 38.7275 32.0768 38.9249 32.6301 39.3181Z" fill="white"/>
<path d="M21.129 29.8817H12.1825C11.3066 29.8807 10.467 29.5323 9.84768 28.913C9.22838 28.2937 8.87998 27.454 8.87891 26.5782V17.6317C8.87998 16.7559 9.22838 15.9162 9.84768 15.2969C10.467 14.6776 11.3066 14.3292 12.1825 14.3281H21.129C22.0046 14.3292 22.844 14.6777 23.463 15.297C24.082 15.9164 24.43 16.756 24.4305 17.6317V26.5782C24.43 27.4538 24.082 28.2935 23.463 28.9128C22.844 29.5322 22.0046 29.8807 21.129 29.8817ZM12.1825 15.7885C11.6938 15.789 11.2253 15.9834 10.8797 16.3289C10.5342 16.6745 10.3398 17.143 10.3393 17.6317V26.5782C10.3398 27.0669 10.5342 27.5354 10.8797 27.8809C11.2253 28.2265 11.6938 28.4208 12.1825 28.4214H21.129C21.6174 28.4208 22.0858 28.2264 22.431 27.8808C22.7762 27.5352 22.9701 27.0667 22.9701 26.5782V17.6317C22.9701 17.1432 22.7762 16.6747 22.431 16.3291C22.0858 15.9835 21.6174 15.789 21.129 15.7885H12.1825Z" fill="#00C650"/>
<path d="M23.7006 24.8768V26.5782C23.7 27.2602 23.4288 27.9142 22.9465 28.3965C22.4642 28.8788 21.8103 29.15 21.1282 29.1505H12.1817C11.4995 29.1505 10.8452 28.8795 10.3628 28.3971C9.88039 27.9147 9.60938 27.2604 9.60938 26.5782V23.7223C11.0414 23.4144 13.2228 23.3172 15.8701 24.3744L17.5107 22.8108L18.6288 25.6465C18.6288 25.6465 18.9285 24.6033 19.8967 24.7512C20.8649 24.899 22.4326 25.4236 23.103 24.976C23.2837 24.8718 23.4959 24.8366 23.7006 24.8768Z" fill="#00C650"/>
<path d="M20.5668 19.4585C21.116 19.4585 21.5613 19.0132 21.5613 18.464C21.5613 17.9147 21.116 17.4695 20.5668 17.4695C20.0175 17.4695 19.5723 17.9147 19.5723 18.464C19.5723 19.0132 20.0175 19.4585 20.5668 19.4585Z" fill="#00C650"/>
</svg>
