<svg width="156" height="32" viewBox="0 0 156 32" fill="none" xmlns="http://www.w3.org/2000/svg">
<path fill-rule="evenodd" clip-rule="evenodd" d="M47.6288 17.4577C37.3193 17.4577 43.4901 8.89603 49.572 12.1786C53.2609 14.1693 50.209 17.4577 47.6288 17.4577ZM51.8747 8.35989C48.3359 7.53527 50.234 7.45006 45.809 7.45006C37.5328 7.45006 29.9011 19.576 38.145 27.8506C39.4213 29.1316 39.9416 29.5424 41.6546 30.4072C45.4008 32.2985 49.5761 32.0402 52.7846 29.892C55.5206 31.3395 59.0014 33.4632 62.5724 29.3681C63.8516 27.9009 64.4538 26.0024 64.0633 23.7838C63.1574 18.6353 60.9548 11.2017 59.8357 5.85824C59.379 3.67608 59.1554 1.63367 57.5223 0.58561C55.7109 -0.577466 53.7898 0.109946 52.709 1.61181C51.9833 2.62006 51.8747 6.56886 51.8747 8.35989Z" fill="white"/>
<path fill-rule="evenodd" clip-rule="evenodd" d="M0 25.1736C0 26.9833 0.640516 27.7952 1.58003 28.749C2.15634 29.3345 2.40317 29.6596 3.07485 29.9838C6.63945 31.7038 9.95723 29.5088 10.8725 26.636C11.3916 25.0056 10.942 24.3024 10.9127 22.4483C10.8747 20.0455 10.1375 19.2561 11.8283 18.8048C11.9147 19.8412 15.481 28.2724 16.1488 29.0416C18.4069 31.6439 24.8699 31.5819 24.8699 25.1734C24.8699 22.2939 20.0229 19.1446 18.0222 16.5537C17.1056 15.3669 16.1681 14.6951 15.4678 13.6491C15.9174 12.9777 16.2103 12.8063 16.7241 12.1758L20.39 7.65326C21.0967 6.78646 22.4089 5.42671 22.7477 4.51875C23.053 3.70141 23.1167 3.3074 22.689 2.51428C20.3483 -1.82667 15.4039 5.48736 10.0086 9.10007L9.67789 3.97177C9.46257 2.02252 8.68636 0.911621 6.67249 0.911621C4.13634 0.911621 4.10449 3.57013 3.7152 5.53631C3.14922 8.39285 0.00016957 23.5386 0.00016957 25.1734L0 25.1736Z" fill="white"/>
<path fill-rule="evenodd" clip-rule="evenodd" d="M65.1034 13.804C65.1034 16.7418 66.533 18.2152 69.5158 19.3996C71.3757 20.1382 75.5312 21.3228 76.0216 21.9919C69.7225 21.9919 67.8215 18.0568 63.8879 20.4731C62.4407 21.3621 61.767 22.5797 61.767 24.4184C61.767 29.3658 71.0318 31.9999 74.505 31.9999C81.4726 31.9999 89.8626 29.9151 87.7266 21.8135C86.9489 18.8635 84.9755 17.0782 82.5711 15.7461C79.4915 14.0393 75.6054 14.0271 72.7665 12.855C75.6788 11.9259 77.8908 12.1624 80.3574 14.0261C83.0677 16.0739 86.6455 12.1956 80.3728 8.84608C75.3034 6.13913 65.1032 7.01965 65.1032 13.804H65.1034Z" fill="white"/>
<path fill-rule="evenodd" clip-rule="evenodd" d="M124.398 17.2247C114.394 17.2247 119.824 8.89018 126.139 11.845C127.394 12.4324 128.341 13.6983 127.78 15.1175C127.368 16.1609 125.75 17.2248 124.398 17.2248V17.2247ZM122.882 31.1753C128.928 31.1753 135.014 25.7633 135.014 19.9541C135.014 15.8253 134.479 13.4063 131.5 10.4271C126.325 5.25223 117.75 6.00943 113.904 10.9761C109.599 16.5361 109.779 22.8027 114.612 27.6176C116.603 29.6016 120.038 31.1753 122.882 31.1753Z" fill="white"/>
<path fill-rule="evenodd" clip-rule="evenodd" d="M87.3544 5.02521C87.3544 7.50602 87.8339 8.49224 91.0643 8.89727C93.0512 9.14662 95.6841 9.2713 97.6661 9.2713C97.6025 12.1207 94.6331 21.1595 94.6331 25.3446C94.6331 29.3844 101.385 32.6976 104.829 27.6547C106.22 25.6162 105.638 24.7358 105.553 22.3121C105.407 18.171 104.642 14.0207 104.642 9.87774C110.499 9.87774 113.103 11.6344 115.792 8.29015C118.303 5.16733 115.181 0.514348 111.451 0.898031C109.174 1.13231 107.296 1.18889 104.991 1.43248C103.049 1.63728 100.736 1.92525 98.5764 1.99301C96.6426 2.05349 94.0977 2.49053 92.1976 2.58979C91.0238 2.65095 87.3542 2.73446 87.3542 5.02521H87.3544Z" fill="white"/>
<path fill-rule="evenodd" clip-rule="evenodd" d="M132.92 18.8973C132.92 22.1658 134.168 24.5441 135.871 26.2575C140.223 30.638 147.096 30.6375 151.654 26.409C152.697 25.441 153.088 24.9017 153.852 23.755C158.516 16.7512 150.202 11.7169 145.867 16.0736C145.113 16.8323 145.207 16.7871 144.753 17.6888C143.774 19.6302 141.715 20.3122 141.715 16.7744C141.715 15.718 144.443 14.4443 145.958 13.4352C147.023 12.7263 150.207 11.3197 150.207 9.79915C150.207 6.31314 145.521 8.58848 142.928 9.19271C142.961 7.7398 143.634 5.43059 143.522 4.06949C143.273 1.03018 138.856 -0.754245 137.201 3.76932C136.612 5.38045 136.157 6.91009 135.611 8.54731C134.841 10.8599 132.92 16.0773 132.92 18.8974L132.92 18.8973Z" fill="white"/>
<path fill-rule="evenodd" clip-rule="evenodd" d="M28.2534 8.89534C27.7835 10.6555 27.6222 8.65005 26.8643 12.9647C26.557 14.7131 26.379 15.9446 26.0522 17.612C25.5958 19.9449 24.614 25.1376 24.614 27.3946C24.614 29.7297 27.0971 31.9438 30.0732 31.9438C32.4924 31.9438 35.5324 29.9754 35.5324 27.0916L34.0426 17.6638C33.7286 16.0899 33.5454 14.7026 33.2359 13.0112C32.5392 9.20347 32.2935 10.3942 31.8929 8.89517C34.8092 7.83966 33.2932 3.13281 30.0732 3.13281C26.2748 3.13281 25.321 8.11205 28.2534 8.89517V8.89534Z" fill="white"/>
<path fill-rule="evenodd" clip-rule="evenodd" d="M8.45731 4.7553C8.61926 4.60386 8.6999 4.41684 8.6999 4.19443C8.6999 3.97201 8.61926 3.77991 8.45731 3.61814C8.2957 3.45654 8.10342 3.37573 7.881 3.37573C7.65891 3.37573 7.47155 3.4567 7.3201 3.61814C7.16865 3.78008 7.09259 3.97201 7.09259 4.19443C7.09259 4.41684 7.16848 4.60386 7.3201 4.7553C7.47155 4.90674 7.65891 4.9828 7.881 4.9828C8.10342 4.9828 8.2957 4.90691 8.45731 4.7553Z" fill="#039BE5"/>
<path fill-rule="evenodd" clip-rule="evenodd" d="M19.7592 4.28207C19.7592 4.50449 19.835 4.6915 19.9867 4.84294C20.1386 4.99438 20.3255 5.07044 20.5481 5.07044C20.7702 5.07044 20.9624 4.99455 21.124 4.84294C21.286 4.6915 21.367 4.50449 21.367 4.28207C21.367 4.05965 21.286 3.86773 21.124 3.70578C20.9624 3.54418 20.7702 3.46338 20.5481 3.46338C20.3256 3.46338 20.1386 3.54435 19.9867 3.70578C19.8352 3.86773 19.7592 4.05965 19.7592 4.28207Z" fill="#039BE5"/>
<path fill-rule="evenodd" clip-rule="evenodd" d="M23.3756 24.0569L15.5813 15.6565C15.4599 15.5552 15.2984 15.4946 15.096 15.4746C14.8939 15.4543 14.722 15.4946 14.5805 15.5957C14.4186 15.7577 14.3327 15.9296 14.3227 16.1115C14.3127 16.2935 14.3682 16.4551 14.4895 16.5965L22.2838 24.9367C22.4053 25.0579 22.5618 25.1287 22.7541 25.1488C22.946 25.1692 23.123 25.1287 23.2845 25.0277C23.4259 24.9062 23.5069 24.7443 23.5274 24.5424C23.5474 24.3403 23.4969 24.1785 23.3755 24.0571L23.3756 24.0569Z" fill="#039BE5"/>
<path fill-rule="evenodd" clip-rule="evenodd" d="M30.0186 10.4923C30.0186 10.7147 30.0944 10.9017 30.2461 11.0532C30.3975 11.2049 30.5849 11.2806 30.807 11.2806C31.0294 11.2806 31.2218 11.2051 31.3833 11.0532C31.5452 10.9017 31.6257 10.7147 31.6257 10.4923C31.6257 10.2699 31.5451 10.0779 31.3833 9.91599C31.2217 9.75439 31.0294 9.67358 30.807 9.67358C30.5849 9.67358 30.3975 9.75456 30.2461 9.91599C30.0946 10.0779 30.0186 10.2699 30.0186 10.4923Z" fill="#039BE5"/>
<path fill-rule="evenodd" clip-rule="evenodd" d="M30.5375 6.01775C30.689 6.16919 30.876 6.24525 31.0984 6.24525C31.3208 6.24525 31.5128 6.16936 31.6747 6.01775C31.8363 5.86631 31.9171 5.6793 31.9171 5.45688C31.9171 5.23446 31.8362 5.04253 31.6747 4.88059C31.5128 4.71899 31.3208 4.63818 31.0984 4.63818C30.876 4.63818 30.689 4.71916 30.5375 4.88059C30.3857 5.04253 30.31 5.23446 30.31 5.45688C30.31 5.6793 30.3856 5.86631 30.5375 6.01775Z" fill="#039BE5"/>
<path fill-rule="evenodd" clip-rule="evenodd" d="M43.813 12.1476C43.3884 12.4305 43.0547 12.764 42.8121 13.1484C42.5697 13.5324 42.4482 13.9368 42.4482 14.3616C42.4482 14.7861 42.5697 15.1905 42.8121 15.5745C43.0545 15.9589 43.3884 16.2924 43.813 16.5753C44.2375 16.8582 44.7279 17.0806 45.2837 17.2426C45.84 17.4042 46.4414 17.485 47.0884 17.485C47.7353 17.485 48.3422 17.404 48.9081 17.2426C49.4744 17.0806 49.9696 16.8582 50.3943 16.5753C50.8188 16.2924 51.1527 15.9589 51.3951 15.5745C51.6376 15.1905 51.759 14.7861 51.759 14.3616C51.759 13.9368 51.6376 13.5324 51.3951 13.1484C51.1527 12.764 50.8188 12.4307 50.3943 12.1476C49.9696 11.8646 49.4744 11.6421 48.9081 11.4802C48.3422 11.3186 47.7353 11.2378 47.0884 11.2378C46.4414 11.2378 45.84 11.3188 45.2837 11.4802C44.7279 11.6421 44.2375 11.8646 43.813 12.1476Z" fill="#039BE5"/>
<path fill-rule="evenodd" clip-rule="evenodd" d="M43.4139 16.9341C43.2522 16.7721 43.0603 16.6917 42.8379 16.6917C42.6155 16.6917 42.4284 16.7723 42.2766 16.9341C42.1252 17.0957 42.0491 17.2879 42.0491 17.5103C42.0491 17.7324 42.125 17.9198 42.2766 18.0712C42.4284 18.2227 42.6155 18.2987 42.8379 18.2987C43.0603 18.2987 43.2522 18.2228 43.4139 18.0712C43.5758 17.9198 43.6568 17.7324 43.6568 17.5103C43.6568 17.2879 43.5758 17.0957 43.4139 16.9341Z" fill="#039BE5"/>
<path fill-rule="evenodd" clip-rule="evenodd" d="M55.6764 2.39528C55.6764 2.6177 55.7519 2.80471 55.9039 2.95649C56.0554 3.10793 56.2424 3.18399 56.4648 3.18399C56.6872 3.18399 56.8792 3.1081 57.0411 2.95649C57.2027 2.80471 57.2835 2.6177 57.2835 2.39528C57.2835 2.1732 57.2026 1.98094 57.0411 1.81933C56.8792 1.65739 56.6872 1.57642 56.4648 1.57642C56.2424 1.57642 56.0554 1.65739 55.9039 1.81933C55.7521 1.98094 55.6764 2.1732 55.6764 2.39528Z" fill="#039BE5"/>
<path fill-rule="evenodd" clip-rule="evenodd" d="M78.6007 9.85251C78.4492 10.0145 78.3732 10.2064 78.3732 10.4288C78.3732 10.6512 78.4491 10.8382 78.6007 10.9897C78.7525 11.1415 78.9395 11.2172 79.1619 11.2172C79.384 11.2172 79.5763 11.1416 79.7379 10.9897C79.8998 10.8382 79.9806 10.6512 79.9806 10.4288C79.9806 10.2064 79.8997 10.0145 79.7379 9.85251C79.5763 9.69091 79.384 9.61011 79.1619 9.61011C78.9395 9.61011 78.7525 9.69108 78.6007 9.85251Z" fill="#039BE5"/>
<path fill-rule="evenodd" clip-rule="evenodd" d="M80.239 16.1025C80.0166 16.1025 79.8296 16.1835 79.6781 16.3449C79.5267 16.5069 79.4506 16.6988 79.4506 16.9212C79.4506 17.1437 79.5265 17.3307 79.6781 17.4821C79.8296 17.6341 80.0166 17.7096 80.239 17.7096C80.4615 17.7096 80.6534 17.6341 80.8153 17.4821C80.977 17.3307 81.0578 17.1437 81.0578 16.9212C81.0578 16.6988 80.9768 16.5067 80.8153 16.3449C80.6534 16.1833 80.4615 16.1025 80.239 16.1025Z" fill="#039BE5"/>
<path fill-rule="evenodd" clip-rule="evenodd" d="M110.809 3.65334C110.809 3.87575 110.885 4.06277 111.037 4.21472C111.188 4.36616 111.375 4.44222 111.598 4.44222C111.82 4.44222 112.012 4.36633 112.174 4.21472C112.335 4.06277 112.416 3.87592 112.416 3.65334C112.416 3.43126 112.335 3.23899 112.174 3.07739C112.012 2.91545 111.82 2.83447 111.598 2.83447C111.375 2.83447 111.188 2.91545 111.037 3.07739C110.885 3.23899 110.809 3.43126 110.809 3.65334Z" fill="#039BE5"/>
<path fill-rule="evenodd" clip-rule="evenodd" d="M118.325 17.8621C118.102 17.8621 117.915 17.943 117.764 18.1046C117.612 18.2666 117.536 18.4585 117.536 18.6809C117.536 18.9033 117.612 19.0904 117.764 19.2418C117.915 19.3937 118.102 19.4693 118.325 19.4693C118.547 19.4693 118.739 19.3937 118.901 19.2418C119.063 19.0904 119.143 18.9033 119.143 18.6809C119.143 18.4585 119.063 18.2666 118.901 18.1046C118.739 17.943 118.547 17.8621 118.325 17.8621Z" fill="#039BE5"/>
<path fill-rule="evenodd" clip-rule="evenodd" d="M125.892 10.7391C125.892 10.9615 125.968 11.1485 126.12 11.3C126.271 11.4514 126.458 11.5275 126.681 11.5275C126.903 11.5275 127.095 11.4516 127.257 11.3C127.419 11.1485 127.499 10.9615 127.499 10.7391C127.499 10.5167 127.419 10.3246 127.257 10.1628C127.095 10.0012 126.903 9.92041 126.681 9.92041C126.458 9.92041 126.271 10.0014 126.12 10.1628C125.968 10.3248 125.892 10.5167 125.892 10.7391Z" fill="#039BE5"/>
<path fill-rule="evenodd" clip-rule="evenodd" d="M143.772 2.92161C143.621 3.08355 143.545 3.27548 143.545 3.49789C143.545 3.72031 143.62 3.90732 143.772 4.05876C143.924 4.21071 144.111 4.28627 144.333 4.28627C144.556 4.28627 144.748 4.21071 144.909 4.05876C145.071 3.90732 145.152 3.72031 145.152 3.49789C145.152 3.27548 145.071 3.08355 144.909 2.92161C144.748 2.76 144.556 2.6792 144.333 2.6792C144.111 2.6792 143.924 2.76017 143.772 2.92161Z" fill="#039BE5"/>
<path fill-rule="evenodd" clip-rule="evenodd" d="M151.118 8.90918C150.895 8.90918 150.708 8.99015 150.557 9.15159C150.405 9.31353 150.329 9.50545 150.329 9.72787C150.329 9.95029 150.405 10.1373 150.557 10.2887C150.708 10.4402 150.895 10.5162 151.118 10.5162C151.34 10.5162 151.532 10.4404 151.694 10.2887C151.855 10.1373 151.936 9.95029 151.936 9.72787C151.936 9.50545 151.855 9.31336 151.694 9.15159C151.532 8.98998 151.34 8.90918 151.118 8.90918Z" fill="#039BE5"/>
<path fill-rule="evenodd" clip-rule="evenodd" d="M154.291 15.812C154.068 15.812 153.881 15.893 153.73 16.0544C153.578 16.2164 153.502 16.4083 153.502 16.6307C153.502 16.8531 153.578 17.0401 153.73 17.1916C153.881 17.3434 154.068 17.4191 154.291 17.4191C154.513 17.4191 154.705 17.3435 154.867 17.1916C155.028 17.0401 155.109 16.8531 155.109 16.6307C155.109 16.4083 155.028 16.2164 154.867 16.0544C154.705 15.8928 154.513 15.812 154.291 15.812Z" fill="#039BE5"/>
</svg>
