<svg width="53" height="53" viewBox="0 0 53 53" fill="none" xmlns="http://www.w3.org/2000/svg">
<path d="M49.4763 1L29.5532 16.9375L33.258 7.545L49.4763 1Z" fill="#E17726" stroke="#E17726" stroke-width="0.49375" stroke-linecap="round" stroke-linejoin="round"/>
<path d="M3.52344 1L23.2692 17.0862L19.7417 7.545L3.52344 1Z" fill="#E27625" stroke="#E27625" stroke-width="0.49375" stroke-linecap="round" stroke-linejoin="round"/>
<path d="M42.3034 37.9534L37.0024 46.7084L48.3533 50.0871L51.6048 38.1446L42.3034 37.9534Z" fill="#E27625" stroke="#E27625" stroke-width="0.49375" stroke-linecap="round" stroke-linejoin="round"/>
<path d="M1.4126 38.1446L4.64444 50.0871L15.9756 46.7084L10.6943 37.9534L1.4126 38.1446Z" fill="#E27625" stroke="#E27625" stroke-width="0.49375" stroke-linecap="round" stroke-linejoin="round"/>
<path d="M15.3669 23.1633L12.2139 28.3058L23.4465 28.8583L23.0721 15.7896L15.3669 23.1633Z" fill="#E27625" stroke="#E27625" stroke-width="0.49375" stroke-linecap="round" stroke-linejoin="round"/>
<path d="M37.6328 23.1634L29.8094 15.6409L29.5532 28.8584L40.7858 28.3059L37.6328 23.1634Z" fill="#E27625" stroke="#E27625" stroke-width="0.49375" stroke-linecap="round" stroke-linejoin="round"/>
<path d="M15.978 46.709L22.7767 43.1602L16.9239 38.2302L15.978 46.709Z" fill="#E27625" stroke="#E27625" stroke-width="0.49375" stroke-linecap="round" stroke-linejoin="round"/>
<path d="M30.2236 43.1602L37.0026 46.709L36.0764 38.2302L30.2236 43.1602Z" fill="#E27625" stroke="#E27625" stroke-width="0.49375" stroke-linecap="round" stroke-linejoin="round"/>
<path d="M37.0026 46.7089L30.2236 43.1602L30.7754 47.9202L30.7163 49.9389L37.0026 46.7089Z" fill="#D5BFB2" stroke="#D5BFB2" stroke-width="0.49375" stroke-linecap="round" stroke-linejoin="round"/>
<path d="M15.978 46.7089L22.2841 49.9389L22.2446 47.9202L22.7767 43.1602L15.978 46.7089Z" fill="#D5BFB2" stroke="#D5BFB2" stroke-width="0.49375" stroke-linecap="round" stroke-linejoin="round"/>
<path d="M22.4016 35.0855L16.7656 33.3005L20.7463 31.3242L22.4016 35.0855Z" fill="#233447" stroke="#233447" stroke-width="0.49375" stroke-linecap="round" stroke-linejoin="round"/>
<path d="M30.5981 35.0855L32.2535 31.3242L36.2539 33.3005L30.5981 35.0855Z" fill="#233447" stroke="#233447" stroke-width="0.49375" stroke-linecap="round" stroke-linejoin="round"/>
<path d="M15.9781 46.7084L16.9634 37.9534L10.6968 38.1446L15.9781 46.7084Z" fill="#CC6228" stroke="#CC6228" stroke-width="0.49375" stroke-linecap="round" stroke-linejoin="round"/>
<path d="M36.0381 37.9534L37.0037 46.7084L42.3047 38.1446L36.0381 37.9534Z" fill="#CC6228" stroke="#CC6228" stroke-width="0.49375" stroke-linecap="round" stroke-linejoin="round"/>
<path d="M40.7858 28.3064L29.5532 28.8589L30.5977 35.0851L32.253 31.3239L36.2534 33.3001L40.7858 28.3064Z" fill="#CC6228" stroke="#CC6228" stroke-width="0.49375" stroke-linecap="round" stroke-linejoin="round"/>
<path d="M16.7655 33.3001L20.7462 31.3239L22.4016 35.0851L23.446 28.8589L12.2134 28.3064L16.7655 33.3001Z" fill="#CC6228" stroke="#CC6228" stroke-width="0.49375" stroke-linecap="round" stroke-linejoin="round"/>
<path d="M12.2134 28.3064L16.9232 38.2301L16.7655 33.3001L12.2134 28.3064Z" fill="#E27525" stroke="#E27525" stroke-width="0.49375" stroke-linecap="round" stroke-linejoin="round"/>
<path d="M36.2535 33.3001L36.0762 38.2301L40.786 28.3064L36.2535 33.3001Z" fill="#E27525" stroke="#E27525" stroke-width="0.49375" stroke-linecap="round" stroke-linejoin="round"/>
<path d="M23.4463 28.8591L22.4019 35.0854L23.7222 42.4379L24.0178 32.7479L23.4463 28.8591Z" fill="#E27525" stroke="#E27525" stroke-width="0.49375" stroke-linecap="round" stroke-linejoin="round"/>
<path d="M29.5547 28.8591L29.0029 32.7266L29.2788 42.4379L30.5991 35.0854L29.5547 28.8591Z" fill="#E27525" stroke="#E27525" stroke-width="0.49375" stroke-linecap="round" stroke-linejoin="round"/>
<path d="M30.5982 35.0853L29.2778 42.4378L30.2237 43.1603L36.0765 38.2303L36.2539 33.3003L30.5982 35.0853Z" fill="#F5841F" stroke="#F5841F" stroke-width="0.49375" stroke-linecap="round" stroke-linejoin="round"/>
<path d="M16.7656 33.3003L16.9233 38.2303L22.7761 43.1603L23.722 42.4378L22.4016 35.0853L16.7656 33.3003Z" fill="#F5841F" stroke="#F5841F" stroke-width="0.49375" stroke-linecap="round" stroke-linejoin="round"/>
<path d="M30.7184 49.9387L30.7775 47.92L30.2651 47.4525H22.7373L22.2446 47.92L22.2841 49.9387L15.978 46.7087L18.1851 48.6637L22.6585 52H30.3242L34.8173 48.6637L37.0047 46.7087L30.7184 49.9387Z" fill="#C0AC9D" stroke="#C0AC9D" stroke-width="0.49375" stroke-linecap="round" stroke-linejoin="round"/>
<path d="M30.2247 43.16L29.2788 42.4375H23.7216L22.7757 43.16L22.2437 47.92L22.7363 47.4525H30.2641L30.7765 47.92L30.2247 43.16Z" fill="#161616" stroke="#161616" stroke-width="0.49375" stroke-linecap="round" stroke-linejoin="round"/>
<path d="M50.3241 17.9787L51.9991 9.18125L49.4767 1L30.2236 16.4062L37.6332 23.1637L48.0973 26.4575L50.4029 23.5462L49.3979 22.76L50.9941 21.1875L49.7723 20.1675L51.3685 18.85L50.3241 17.9787Z" fill="#763E1A" stroke="#763E1A" stroke-width="0.49375" stroke-linecap="round" stroke-linejoin="round"/>
<path d="M1 9.18125L2.69475 17.9787L1.6109 18.85L3.22682 20.1675L2.00502 21.1875L3.60124 22.76L2.59621 23.5462L4.90185 26.4575L15.3659 23.1637L22.7755 16.4062L3.52241 1L1 9.18125Z" fill="#763E1A" stroke="#763E1A" stroke-width="0.49375" stroke-linecap="round" stroke-linejoin="round"/>
<path d="M48.0975 26.4576L37.6335 23.1638L40.7865 28.3063L36.0767 38.2301L42.3039 38.1451H51.6052L48.0975 26.4576Z" fill="#F5841F" stroke="#F5841F" stroke-width="0.49375" stroke-linecap="round" stroke-linejoin="round"/>
<path d="M15.3647 23.1638L4.90062 26.4576L1.4126 38.1451H10.6943L16.9215 38.2301L12.2117 28.3063L15.3647 23.1638Z" fill="#F5841F" stroke="#F5841F" stroke-width="0.49375" stroke-linecap="round" stroke-linejoin="round"/>
<path d="M29.5535 28.8582L30.2235 16.4057L33.2583 7.54443H19.7397L22.7745 16.4057L23.4445 28.8582L23.7007 32.7682L23.7204 42.4369H29.2776L29.2973 32.7682L29.5535 28.8582Z" fill="#F5841F" stroke="#F5841F" stroke-width="0.49375" stroke-linecap="round" stroke-linejoin="round"/>
</svg>
