<svg width="41" height="49" viewBox="0 0 41 49" fill="none" xmlns="http://www.w3.org/2000/svg">
<g opacity="0.3">
<path opacity="0.3" d="M28.2927 9.97545C27.1853 9.97438 26.1236 9.53399 25.3406 8.75097C24.5576 7.96795 24.1172 6.90626 24.1162 5.7989V0H5.45347C4.0079 0 2.62154 0.574268 1.59936 1.59644C0.577186 2.61862 0.00292969 4.00495 0.00292969 5.45053V38.3077C0.00507636 39.7519 0.580274 41.1362 1.60222 42.1566C2.62416 43.177 4.0093 43.7502 5.45347 43.7502H27.8572C29.3014 43.7502 30.6865 43.177 31.7085 42.1566C32.7304 41.1362 33.3056 39.7519 33.3078 38.3077V9.97545H28.2927Z" fill="#FF3E4C"/>
</g>
<path d="M33.3078 9.97545H28.2927C27.1854 9.97438 26.1237 9.53399 25.3407 8.75097C24.5576 7.96795 24.1173 6.90626 24.1162 5.7989V0L33.3078 9.97545Z" fill="#FF3E4C"/>
<path d="M26.4557 30.5522H5.54471C5.34326 30.5522 5.15006 30.4722 5.00762 30.3298C4.86518 30.1873 4.78516 29.9941 4.78516 29.7927C4.78569 29.5916 4.86595 29.3989 5.00834 29.2569C5.15072 29.1149 5.34361 29.0352 5.54471 29.0352H26.4557C26.6566 29.0352 26.8493 29.1149 26.9913 29.257C27.1334 29.3991 27.2132 29.5918 27.2132 29.7927C27.2135 29.8923 27.1941 29.9911 27.1561 30.0832C27.1182 30.1753 27.0624 30.2591 26.9921 30.3296C26.9217 30.4002 26.8381 30.4562 26.7461 30.4944C26.654 30.5326 26.5553 30.5522 26.4557 30.5522Z" fill="#FF3E4C"/>
<path d="M26.4557 21.9971H5.54471C5.34361 21.9971 5.15072 21.9173 5.00834 21.7753C4.86595 21.6333 4.78569 21.4406 4.78516 21.2395C4.78516 21.0381 4.86518 20.8449 5.00762 20.7024C5.15006 20.56 5.34326 20.48 5.54471 20.48H26.4557C26.5553 20.48 26.654 20.4996 26.7461 20.5378C26.8381 20.576 26.9217 20.632 26.9921 20.7026C27.0624 20.7731 27.1182 20.8569 27.1561 20.949C27.1941 21.0412 27.2135 21.1399 27.2132 21.2395C27.2132 21.4404 27.1334 21.6331 26.9913 21.7752C26.8493 21.9172 26.6566 21.9971 26.4557 21.9971Z" fill="#FF3E4C"/>
<path d="M26.4557 26.2749H5.54471C5.34326 26.2749 5.15006 26.1949 5.00762 26.0524C4.86518 25.91 4.78516 25.7168 4.78516 25.5153C4.78569 25.3142 4.86595 25.1216 5.00834 24.9795C5.15072 24.8375 5.34361 24.7578 5.54471 24.7578H26.4557C26.6566 24.7578 26.8493 24.8376 26.9913 24.9797C27.1334 25.1218 27.2132 25.3144 27.2132 25.5153C27.2135 25.615 27.1941 25.7137 27.1561 25.8059C27.1182 25.898 27.0624 25.9818 26.9921 26.0523C26.9217 26.1229 26.8381 26.1788 26.7461 26.217C26.654 26.2552 26.5553 26.2749 26.4557 26.2749Z" fill="#FF3E4C"/>
<path d="M18.208 17.7187H5.54471C5.34361 17.7187 5.15072 17.639 5.00834 17.497C4.86595 17.355 4.78569 17.1623 4.78516 16.9612C4.78516 16.7598 4.86518 16.5666 5.00762 16.4241C5.15006 16.2817 5.34326 16.2017 5.54471 16.2017H18.208C18.4091 16.2022 18.6017 16.2824 18.7437 16.4248C18.8857 16.5672 18.9655 16.7601 18.9655 16.9612C18.965 17.162 18.885 17.3543 18.743 17.4963C18.6011 17.6382 18.4087 17.7182 18.208 17.7187Z" fill="#FF3E4C"/>
<path d="M18.208 13.4409H5.54471C5.34361 13.4409 5.15072 13.3611 5.00834 13.2191C4.86595 13.0771 4.78569 12.8845 4.78516 12.6834C4.78516 12.4819 4.86518 12.2887 5.00762 12.1463C5.15006 12.0038 5.34326 11.9238 5.54471 11.9238H18.208C18.4091 11.9244 18.6017 12.0046 18.7437 12.147C18.8857 12.2894 18.9655 12.4823 18.9655 12.6834C18.965 12.8841 18.885 13.0765 18.743 13.2184C18.6011 13.3604 18.4087 13.4404 18.208 13.4409Z" fill="#FF3E4C"/>
<path d="M37.2591 34.5566H11.9326C10.1361 34.5566 8.67969 36.013 8.67969 37.8095V45.3605C8.67969 47.157 10.1361 48.6134 11.9326 48.6134H37.2591C39.0556 48.6134 40.512 47.157 40.512 45.3605V37.8095C40.512 36.013 39.0556 34.5566 37.2591 34.5566Z" fill="#FF3E4C"/>
<path d="M16.988 43.2197V44.6922H15.4648V43.2197H16.988Z" fill="white"/>
<path d="M19.2284 42.555V44.6919H17.7559V38.6013H20.1419C20.865 38.6013 21.4179 38.7816 21.7967 39.1401C21.9883 39.3284 22.138 39.5552 22.2357 39.8055C22.3335 40.0558 22.3771 40.3239 22.3638 40.5923C22.3712 40.9464 22.2838 41.2961 22.1106 41.6051C21.9338 41.9071 21.6717 42.1503 21.3572 42.3039C20.9778 42.4832 20.5613 42.57 20.1419 42.5571L19.2284 42.555ZM20.865 40.5923C20.865 40.0522 20.5692 39.7821 19.9778 39.7821H19.2284V41.3681H19.9778C20.5692 41.3735 20.865 41.1149 20.865 40.5923Z" fill="white"/>
<path d="M28.1839 43.2233C27.9303 43.6839 27.5472 44.0599 27.0821 44.3049C26.5586 44.5729 25.9766 44.7059 25.3888 44.6918H23.0898V38.6012H25.3888C25.977 38.5864 26.5599 38.7165 27.0861 38.98C27.55 39.2197 27.9321 39.592 28.1839 40.0494C28.4474 40.5351 28.5801 41.0809 28.5687 41.6334C28.5797 42.1877 28.4472 42.7354 28.1839 43.2233ZM26.6 42.9175C26.7646 42.7485 26.8922 42.547 26.9745 42.3259C27.0568 42.1047 27.0921 41.8689 27.078 41.6334C27.0922 41.3981 27.0569 41.1625 26.9746 40.9417C26.8923 40.7209 26.7647 40.5198 26.6 40.3512C26.2316 40.028 25.7504 39.8634 25.2612 39.8935H24.5624V43.3732H25.2612C25.75 43.4029 26.2308 43.2392 26.6 42.9175Z" fill="white"/>
<path d="M33.3743 38.6011V39.7738H30.8769V41.1086H32.8051V42.2287H30.8769V44.6916H29.4023V38.6011H33.3743Z" fill="white"/>
<path d="M26.0843 11.9238H22.5033C21.8791 11.9238 21.373 12.4298 21.373 13.054V16.6351C21.373 17.2593 21.8791 17.7653 22.5033 17.7653H26.0843C26.7085 17.7653 27.2145 17.2593 27.2145 16.6351V13.054C27.2145 12.4298 26.7085 11.9238 26.0843 11.9238Z" fill="#FF3E4C"/>
</svg>
