<svg width="100" height="100" viewBox="0 0 100 100" fill="none" xmlns="http://www.w3.org/2000/svg">
<circle cx="50" cy="50" r="50" fill="white"/>
<path fill-rule="evenodd" clip-rule="evenodd" d="M25 68.9469C25 72.5978 26.2923 74.2358 28.1878 76.1602C29.3505 77.3413 29.8485 77.9971 31.2037 78.6512C38.3954 82.1213 45.0892 77.6929 46.9358 71.8972C47.9831 68.6079 47.076 67.1894 47.0168 63.4489C46.9403 58.6013 45.4528 57.0087 48.8642 56.0983C49.0385 58.1891 56.2336 75.1985 57.5809 76.7504C62.1369 82.0003 75.1762 81.8752 75.1762 68.9466C75.1762 63.1373 65.3971 56.7839 61.3607 51.5569C59.5113 49.1626 57.6199 47.8072 56.207 45.6969C57.1141 44.3426 57.705 43.9967 58.7416 42.7248L66.1378 33.6008C67.5637 31.8521 70.2111 29.1089 70.8947 27.2771C71.5106 25.6282 71.6391 24.8333 70.7761 23.2333C66.0537 14.4757 56.0781 29.2312 45.1928 36.5197L44.5256 26.1736C44.0912 22.2412 42.5252 20 38.4621 20C33.3453 20 33.281 25.3634 32.4956 29.33C31.3537 35.0929 25 65.6488 25 68.9469Z" fill="url(#paint0_linear_1866_6953)"/>
<path fill-rule="evenodd" clip-rule="evenodd" d="M63.7474 29.4943C64.1073 29.1578 64.2865 28.7422 64.2865 28.2479C64.2865 27.7536 64.1073 27.3267 63.7474 26.9672C63.3882 26.608 62.9609 26.4285 62.4665 26.4285C61.973 26.4285 61.5566 26.6084 61.22 26.9672C60.8834 27.3271 60.7144 27.7536 60.7144 28.2479C60.7144 28.7422 60.883 29.1578 61.22 29.4943C61.5566 29.8309 61.973 29.9999 62.4665 29.9999C62.9609 29.9999 63.3882 29.8312 63.7474 29.4943Z" fill="white"/>
<path fill-rule="evenodd" clip-rule="evenodd" d="M38.7474 28.0658C39.1073 27.7293 39.2865 27.3137 39.2865 26.8194C39.2865 26.3251 39.1073 25.8982 38.7474 25.5387C38.3882 25.1796 37.9609 25 37.4665 25C36.973 25 36.5566 25.1799 36.22 25.5387C35.8834 25.8986 35.7144 26.3251 35.7144 26.8194C35.7144 27.3137 35.883 27.7293 36.22 28.0658C36.5566 28.4024 36.973 28.5714 37.4665 28.5714C37.9609 28.5714 38.3882 28.4028 38.7474 28.0658Z" fill="white"/>
<path fill-rule="evenodd" clip-rule="evenodd" d="M70.7493 71.1426L53.5021 52.5552C53.2333 52.3311 52.8761 52.1969 52.4281 52.1527C51.9809 52.1077 51.6004 52.1969 51.2874 52.4207C50.9291 52.779 50.739 53.1594 50.7169 53.562C50.6948 53.9645 50.8177 54.3221 51.0861 54.6351L68.3333 73.0894C68.6021 73.3574 68.9485 73.514 69.374 73.5586C69.7987 73.6036 70.1904 73.514 70.5476 73.2907C70.8606 73.0219 71.0398 72.6636 71.0852 72.2168C71.1294 71.7696 71.0177 71.4117 70.7489 71.1429L70.7493 71.1426Z" fill="white"/>
<defs>
<linearGradient id="paint0_linear_1866_6953" x1="50.0881" y1="20" x2="50.0881" y2="80" gradientUnits="userSpaceOnUse">
<stop stop-color="#2603FF"/>
<stop offset="1" stop-color="#04F0FF"/>
</linearGradient>
</defs>
</svg>
