<svg width="260" height="60" viewBox="0 0 260 60" fill="none" xmlns="http://www.w3.org/2000/svg">
<path d="M88.1733 19.4389C84.8438 19.4389 82.4382 20.3611 80.9571 22.2055C79.4759 24.0497 78.7353 26.5755 78.7353 29.7827C78.7179 31.2135 78.9034 32.6396 79.2862 34.0183C79.6137 35.2088 80.1755 36.3221 80.9387 37.2928C81.6694 38.2117 82.6097 38.9421 83.6808 39.4227C84.8938 39.952 86.2076 40.2111 87.5307 40.1817C88.3264 40.1817 89.0057 40.1817 89.5689 40.1327C90.0682 40.1089 90.5652 40.0496 91.0562 39.9553V28.9381H98.1989V44.6498C96.8559 45.1135 95.4785 45.4715 94.0797 45.7209C91.7681 46.1417 89.4209 46.3345 87.0717 46.2962C84.864 46.3263 82.6695 45.953 80.596 45.1945C78.7227 44.5088 77.0252 43.4153 75.6261 41.9933C74.2065 40.5153 73.1211 38.7495 72.4433 36.8153C71.6572 34.5641 71.2758 32.1914 71.3171 29.8072C71.2706 27.4003 71.6861 25.0067 72.5412 22.7563C73.3018 20.8093 74.4562 19.0402 75.9321 17.5599C77.3712 16.1361 79.0966 15.0346 80.9938 14.3282C82.9793 13.5908 85.0822 13.2196 87.2002 13.2326C88.5567 13.2211 89.912 13.3214 91.252 13.5325C92.3024 13.6922 93.3411 13.9213 94.3613 14.218C95.1004 14.4253 95.821 14.6935 96.5157 15.0199C97.0788 15.2953 97.4828 15.5033 97.7399 15.6319L95.6772 21.3608C94.6023 20.8004 93.4746 20.3474 92.3109 20.0081C90.9666 19.6183 89.5728 19.4265 88.1733 19.4389Z" fill="#202837"/>
<path d="M102.526 45.6596V13.9303H123.948V19.9285H109.669V26.1716H122.357V32.0352H109.669V39.6369H125.014V45.6351L102.526 45.6596Z" fill="#202837"/>
<path d="M149.281 45.6596C147.241 42.024 145.028 38.4353 142.64 34.8935C140.302 31.4081 137.764 28.0607 135.038 24.8679V45.678H127.988V13.9303H133.802C134.81 14.9341 135.924 16.1705 137.144 17.6395C138.365 19.1084 139.609 20.6732 140.878 22.334C142.147 23.9906 143.408 25.7145 144.66 27.5059C145.913 29.2971 147.089 31.0151 148.186 32.6594V13.9303H155.28V45.6657L149.281 45.6596Z" fill="#202837"/>
<path d="M160.318 45.6596V13.9303H181.739V19.9285H167.466V26.1716H180.148V32.0352H167.466V39.6369H182.804V45.6351L160.318 45.6596Z" fill="#202837"/>
<path d="M194.44 40.2061C195.277 40.2259 196.114 40.1417 196.931 39.9551C197.496 39.8301 198.032 39.5973 198.51 39.2696C198.882 39.0151 199.17 38.6549 199.336 38.2352C199.493 37.8126 199.57 37.3641 199.562 36.9132C199.559 36.3929 199.422 35.882 199.166 35.429C198.911 34.976 198.544 34.5957 198.1 34.3242C196.525 33.3669 194.831 32.6199 193.062 32.1024C192.022 31.7351 190.987 31.3189 189.947 30.8415C188.935 30.3851 187.996 29.7852 187.156 29.0604C186.32 28.3275 185.635 27.44 185.136 26.4469C184.589 25.2804 184.322 24.0015 184.358 22.7133C184.338 21.3485 184.62 19.9959 185.185 18.7533C185.725 17.5883 186.526 16.5624 187.523 15.7542C188.612 14.8869 189.859 14.2404 191.196 13.8506C192.772 13.3904 194.407 13.1677 196.049 13.1897C199.314 13.1185 202.544 13.8744 205.439 15.387L203.376 21.0179C202.427 20.5302 201.44 20.1209 200.425 19.7937C199.154 19.4174 197.833 19.2398 196.508 19.2674C194.802 19.2674 193.578 19.5041 192.836 19.9775C192.47 20.2052 192.173 20.5272 191.975 20.9094C191.777 21.2917 191.686 21.7203 191.71 22.1502C191.693 22.6711 191.839 23.1843 192.126 23.6192C192.439 24.0527 192.838 24.4189 193.295 24.6963C193.846 25.0406 194.428 25.3316 195.034 25.5655C195.688 25.8227 196.416 26.0919 197.206 26.3673C198.858 26.9793 200.267 27.5915 201.491 28.2036C202.618 28.7282 203.651 29.4332 204.551 30.2906C205.363 31.0725 205.991 32.0261 206.387 33.0817C206.816 34.3338 207.023 35.651 206.999 36.9744C206.999 39.9367 205.961 42.234 203.884 43.8662C201.806 45.4983 198.679 46.3145 194.501 46.3145C193.228 46.3255 191.954 46.2416 190.693 46.0635C189.682 45.9228 188.681 45.7184 187.694 45.4514C186.931 45.2444 186.182 44.9847 185.454 44.6741C184.914 44.4444 184.387 44.1848 183.875 43.8968L185.888 38.2169C187.003 38.8057 188.177 39.2736 189.39 39.6123C191.036 40.0477 192.737 40.2475 194.44 40.2061Z" fill="#202837"/>
<path d="M221.309 26.9366C222.594 24.7782 223.818 22.6176 224.982 20.4549C226.145 18.2923 227.214 16.1174 228.188 13.9303H236.066C234.324 17.3456 232.522 20.6569 230.662 23.8641C228.8 27.0714 226.832 30.2887 224.755 33.5163V45.6535H217.606V33.6143C215.53 30.3744 213.554 27.1387 211.681 23.907C209.808 20.6753 207.998 17.3497 206.252 13.9303H214.54C215.519 16.1215 216.565 18.3005 217.698 20.4611C218.831 22.6217 220.03 24.7761 221.309 26.9366Z" fill="#202837"/>
<path d="M245.866 40.2061C246.704 40.226 247.543 40.1416 248.363 39.9552C248.927 39.8277 249.463 39.5952 249.941 39.2696C250.313 39.0147 250.598 38.6544 250.762 38.2352C250.921 37.8129 251 37.3645 250.994 36.9132C250.99 36.3922 250.853 35.881 250.596 35.428C250.339 34.9749 249.97 34.595 249.526 34.3242C247.951 33.3645 246.258 32.6174 244.488 32.1024C243.454 31.7352 242.413 31.3189 241.379 30.8415C240.365 30.3866 239.423 29.7866 238.582 29.0604C237.75 28.3256 237.066 27.4386 236.568 26.4469C236.017 25.2813 235.751 24.0018 235.79 22.7133C235.77 21.3484 236.052 19.9959 236.617 18.7533C237.152 17.5873 237.95 16.5609 238.949 15.7542C240.038 14.8876 241.285 14.2411 242.621 13.8507C244.198 13.3897 245.833 13.167 247.475 13.1896C250.74 13.1206 253.969 13.8764 256.864 15.387L254.801 21.018C253.85 20.5314 252.862 20.122 251.845 19.7938C250.576 19.418 249.257 19.2405 247.934 19.2674C246.22 19.2674 244.996 19.5061 244.261 19.9774C243.896 20.2054 243.6 20.5276 243.403 20.9101C243.206 21.2924 243.115 21.7208 243.142 22.1503C243.122 22.6705 243.266 23.1837 243.552 23.6192C243.866 24.0513 244.264 24.4173 244.721 24.6964C245.272 25.0406 245.854 25.3317 246.458 25.5656C247.12 25.8226 247.842 26.0919 248.638 26.3673C250.284 26.9794 251.698 27.5914 252.922 28.2036C254.05 28.7274 255.083 29.4324 255.983 30.2907C256.795 31.0723 257.423 32.0259 257.819 33.0817C258.251 34.333 258.457 35.6509 258.431 36.9744C258.431 39.9368 257.394 42.2341 255.322 43.8662C253.248 45.4983 250.118 46.3144 245.933 46.3144C244.661 46.3257 243.39 46.2418 242.131 46.0635C241.12 45.9241 240.118 45.7196 239.132 45.4514C237.798 45.0939 236.513 44.5717 235.307 43.8968L237.32 38.2168C239.969 39.6219 242.936 40.3158 245.933 40.2306L245.866 40.2061Z" fill="#202837"/>
<path d="M59.5104 29.746C59.5212 36.1002 57.4867 42.2892 53.708 47.3978L47.3671 41.063L44.1782 37.868L41.0446 34.7405C40.6446 34.3289 40.3501 33.8268 40.186 33.2768C40.0219 32.727 39.993 32.1456 40.102 31.5822C40.2066 30.9757 40.2598 30.3614 40.2611 29.746C40.2656 28.3669 39.9977 27.0005 39.4724 25.7254C38.9473 24.4502 38.1752 23.2914 37.2007 22.3156C36.1118 21.231 34.8004 20.3957 33.357 19.8673C31.7665 19.2876 30.0598 19.1 28.3813 19.3204C26.703 19.5408 25.1026 20.1626 23.7156 21.1333C22.3288 22.104 21.1963 23.3947 20.4145 24.8962C19.6327 26.3976 19.2245 28.0655 19.2245 29.7582C19.2248 30.374 19.2802 30.9884 19.3897 31.5944C19.4987 32.155 19.471 32.7335 19.3091 33.2812C19.1471 33.8287 18.8557 34.3292 18.4595 34.7405L15.3379 37.8742L12.149 41.063L5.8081 47.404C1.5822 41.6752 -0.449011 34.6206 0.0833246 27.5218C0.615661 20.4228 3.67625 13.7501 8.70928 8.71555C9.76068 7.65857 10.8923 6.68452 12.094 5.80213C16.5244 2.53682 21.7736 0.564391 27.2581 0.104201C32.7426 -0.35599 38.2471 0.714097 43.1598 3.19546C48.0724 5.6768 52.2004 9.47218 55.0848 14.1595C57.9692 18.8468 59.497 24.2423 59.4982 29.746H59.5104Z" fill="#E13F29"/>
<path d="M44.5516 44.5334C42.6113 46.478 40.3064 48.0209 37.769 49.0735C35.2314 50.1263 32.5114 50.6681 29.7642 50.6681C27.0171 50.6681 24.2969 50.1263 21.7595 49.0735C19.2221 48.0209 16.9171 46.478 14.9767 44.5334L8.73987 50.7703C14.3171 56.3465 21.8807 59.479 29.7672 59.479C37.6539 59.479 45.2175 56.3465 50.7947 50.7703L44.5516 44.5334Z" fill="#F5772F"/>
<path d="M41.4607 41.4732C39.9256 43.011 38.1025 44.2312 36.0955 45.0636C34.0885 45.896 31.937 46.3246 29.7641 46.3246C27.5913 46.3246 25.4398 45.896 23.4328 45.0636C21.4257 44.2312 19.6025 43.011 18.0676 41.4732L22.3521 37.1887C24.3236 39.1577 26.9961 40.2636 29.7825 40.2636C32.5689 40.2636 35.2413 39.1577 37.2129 37.1887L41.4607 41.4732Z" fill="#F5772F"/>
<path d="M35.8297 29.7459C35.7796 31.322 35.1183 32.8168 33.9856 33.9141C32.8531 35.0113 31.3379 35.6248 29.761 35.6248C28.1841 35.6248 26.6691 35.0113 25.5364 33.9141C24.4039 32.8168 23.7425 31.322 23.6925 29.7459C23.6925 29.6725 23.6925 29.599 23.6925 29.5256C23.7487 27.9949 24.3819 26.542 25.4649 25.4589C26.548 24.3758 28.0009 23.7427 29.5316 23.6865H29.9845C31.5121 23.744 32.9617 24.3762 34.0431 25.4565C35.1247 26.5369 35.7584 27.9858 35.8174 29.5134C35.8297 29.5929 35.8297 29.6725 35.8297 29.7459Z" fill="#F5772F"/>
</svg>
