<svg width="95" height="60" viewBox="0 0 95 60" fill="none" xmlns="http://www.w3.org/2000/svg">
<g clip-path="url(#clip0_594_1781)">
<path d="M0.620789 26.4541V0H5.61832V22.0967H18.8499V26.4541H0.620789Z" fill="#283043"/>
<path d="M30.2301 26.917C28.0744 26.917 26.2793 26.5373 24.8449 25.7781C23.4034 25.0152 22.2643 23.7849 21.6144 22.2891C20.8971 20.7204 20.5386 18.728 20.5386 16.3119C20.5386 13.8957 20.8971 11.8974 21.6144 10.3166C22.2693 8.82862 23.4076 7.60556 24.8449 6.84575C26.2813 6.08843 28.0765 5.70879 30.2301 5.70679C32.1774 5.70679 33.8112 6.07341 35.1314 6.80669C36.4758 7.56506 37.5258 8.75375 38.1125 10.1814C38.7797 11.7 39.1133 13.6664 39.1133 16.0805V17.4689H25.3438C25.3622 18.5539 25.5571 19.6288 25.9208 20.6513C26.2063 21.4522 26.7564 22.1317 27.4804 22.5776C28.3341 23.0384 29.297 23.2586 30.2661 23.2147C30.8264 23.2185 31.3843 23.1406 31.922 22.9832C32.4143 22.8379 32.8722 22.5946 33.2683 22.2681C33.6583 21.9431 33.9671 21.5314 34.1698 21.066C34.3983 20.5307 34.51 19.9529 34.4974 19.3711H39.1133C39.14 20.5251 38.9101 21.6706 38.4401 22.7248C38.0127 23.6507 37.3659 24.4583 36.5559 25.0778C35.7086 25.7137 34.7493 26.1846 33.7281 26.4662C32.5892 26.7822 31.412 26.938 30.2301 26.929M25.4219 14.1632H34.23C34.2424 13.4327 34.141 12.7048 33.9294 12.0056C33.7651 11.4657 33.4898 10.9662 33.121 10.539C32.7827 10.1595 32.3521 9.87375 31.8709 9.70962C31.3373 9.53669 30.7789 9.45244 30.2181 9.46019C29.3504 9.43362 28.4881 9.60525 27.6968 9.96206C27.0222 10.2904 26.4749 10.8323 26.1401 11.5037C25.7409 12.3399 25.4936 13.2404 25.4099 14.1632" fill="#FAFAFA"/>
<path d="M47.7319 26.9167C47.0795 26.9068 46.4295 26.8354 45.7906 26.7033C45.0511 26.5561 44.3405 26.2891 43.687 25.9129C42.9831 25.5043 42.4043 24.9109 42.0132 24.197C41.5388 23.2752 41.313 22.2457 41.358 21.2099C41.3115 19.992 41.6342 18.7884 42.2837 17.7571C42.9345 16.8141 43.8315 16.0678 44.877 15.5994C46.1463 15.0271 47.4949 14.6502 48.8769 14.4814C50.57 14.252 52.2771 14.1416 53.9856 14.1509V12.4951C53.9948 11.9559 53.903 11.4198 53.7152 10.9144C53.5297 10.4429 53.1824 10.053 52.7355 9.8145C52.2607 9.544 51.5495 9.40881 50.6019 9.40881C49.8429 9.37731 49.0852 9.49575 48.372 9.75738C47.9216 9.91913 47.5315 10.2149 47.2541 10.6048C47.0587 10.9166 46.9547 11.2768 46.9536 11.6446V12.1856H42.3768C42.3504 12.059 42.3374 11.9301 42.3377 11.8009V11.3381C42.3162 10.2446 42.6848 9.17925 43.3775 8.33294C44.1442 7.43369 45.1417 6.76044 46.2624 6.38563C47.6342 5.91171 49.0787 5.68284 50.5297 5.70948C52.3749 5.70948 53.8945 5.96693 55.0885 6.48181C56.1859 6.91831 57.1197 7.68625 57.76 8.67856C58.375 9.72944 58.6812 10.9324 58.6435 12.1495V21.7118C58.6237 21.907 58.652 22.1041 58.7259 22.2858C58.7997 22.4676 58.9169 22.6286 59.0673 22.7546C59.3344 22.9516 59.658 23.0571 59.9899 23.0551H61.222V26.2886C60.9635 26.3938 60.5939 26.514 60.107 26.6552C59.5187 26.8092 58.912 26.881 58.304 26.8686C57.6872 26.8798 57.0744 26.7685 56.5009 26.5411C55.9913 26.3333 55.5375 26.0091 55.1757 25.5944C54.8094 25.1728 54.546 24.6718 54.4064 24.1309H54.1749C53.7253 24.6823 53.2014 25.1688 52.6183 25.5764C51.9764 26.0181 51.2655 26.3503 50.5147 26.5591C49.6058 26.804 48.6672 26.9213 47.7259 26.9077M49.1474 23.0491C49.8489 23.0613 50.5468 22.9442 51.2059 22.7035C51.7717 22.4966 52.2848 22.1672 52.7084 21.7388C53.1183 21.3085 53.4327 20.7965 53.631 20.2362C53.8544 19.6179 53.9654 18.9645 53.9585 18.307V17.3814C52.6514 17.3739 51.3455 17.4644 50.0519 17.6519C49.0395 17.7664 48.0663 18.1097 47.206 18.6556C46.8653 18.8823 46.589 19.1931 46.4037 19.5579C46.2183 19.9228 46.1304 20.3293 46.1482 20.7381C46.1409 21.1618 46.2545 21.5788 46.4758 21.9402C46.7168 22.3076 47.0667 22.5902 47.4765 22.7486C48.0075 22.9603 48.5759 23.0626 49.1474 23.0491Z" fill="#FAFAFA"/>
<path d="M63.4126 26.4543V6.16963H67.3195L67.7038 9.37013H67.9713C68.222 8.73756 68.5382 8.13319 68.9151 7.567C69.2876 7.01381 69.7807 6.55244 70.3576 6.21771C71.0151 5.85179 71.7601 5.67109 72.512 5.69482C72.8932 5.69183 73.2732 5.73114 73.6451 5.81201C73.9138 5.86573 74.1776 5.94316 74.4326 6.04341V10.476H73.0288C72.3145 10.4656 71.6026 10.5774 70.9257 10.8066C70.3295 11.0116 69.7938 11.3629 69.3688 11.8283C68.9251 12.326 68.602 12.9194 68.4251 13.5623C68.2101 14.3533 68.1088 15.1708 68.1245 15.9904V26.4423L63.4126 26.4543Z" fill="#FAFAFA"/>
<path d="M76.7376 26.4546V6.16992H80.6589L81.0439 8.87456H81.3145C81.7789 8.25306 82.3295 7.70069 82.9489 7.23375C83.6007 6.74675 84.3276 6.36919 85.1007 6.11583C85.9645 5.83666 86.8676 5.69965 87.7751 5.71013C88.9464 5.68723 90.1082 5.92431 91.177 6.40431C92.1751 6.879 92.992 7.66456 93.5057 8.64313C94.067 9.67088 94.3482 11.0453 94.3507 12.7662V26.4576H89.6201V13.6136C89.637 13.0029 89.5532 12.3937 89.3707 11.8106C89.2351 11.3717 88.9882 10.9752 88.6545 10.6594C88.3207 10.3436 87.9114 10.1191 87.4657 10.0075C86.9639 9.87494 86.4464 9.81025 85.927 9.81513C85.122 9.80475 84.3301 10.0191 83.6401 10.4342C82.9614 10.8456 82.4039 11.4307 82.0264 12.1291C81.6139 12.8991 81.407 13.7622 81.4251 14.6354V26.4365L76.7376 26.4546Z" fill="#FAFAFA"/>
<path d="M30.14 59.7903C29.4876 59.7805 28.8376 59.7091 28.1986 59.577C27.4592 59.4293 26.7488 59.1624 26.095 58.7867C25.3918 58.3771 24.8132 57.784 24.4212 57.0707C23.948 56.1486 23.7232 55.1191 23.7691 54.0837C23.7178 52.8672 24.0352 51.6637 24.6796 50.6308C25.3323 49.6884 26.2301 48.9423 27.276 48.4731C28.545 47.9 29.8937 47.523 31.2758 47.3552C32.9689 47.1255 34.676 47.015 36.3846 47.0246V45.3688C36.3932 44.8299 36.3025 44.2941 36.1172 43.7881C35.9296 43.317 35.5815 42.9274 35.1345 42.6882C34.6597 42.4177 33.9504 42.2825 33.0008 42.2825C32.2418 42.251 31.4842 42.3695 30.771 42.6311C30.3214 42.7929 29.9323 43.0887 29.6561 43.4785C29.4595 43.7897 29.3553 44.1503 29.3556 44.5184V45.0593H24.8178C24.793 44.9325 24.78 44.8037 24.7788 44.6746V44.2118C24.7585 43.1185 25.127 42.0536 25.8186 41.2067C26.5853 40.3074 27.5827 39.6341 28.7035 39.2594C30.0754 38.7864 31.5198 38.5586 32.9708 38.5862C34.8199 38.5862 36.3395 38.8427 37.5295 39.3555C38.6274 39.7912 39.5615 40.5593 40.2011 41.5523C40.8237 42.6007 41.1363 43.8043 41.1027 45.0232V54.5855C41.0825 54.7804 41.1102 54.9774 41.1835 55.1591C41.2569 55.3409 41.3735 55.5019 41.5233 55.6283C41.7917 55.8252 42.1162 55.9305 42.4489 55.9288H43.678V59.1653C43.4226 59.2705 43.05 59.3907 42.5632 59.532C41.9748 59.6859 41.368 59.7577 40.76 59.7453C40.1433 59.7563 39.5305 59.645 38.957 59.4177C38.4474 59.21 37.9935 58.8858 37.6317 58.4712C37.2654 58.0495 37.002 57.5485 36.8624 57.0076H36.631C36.1814 57.559 35.6575 58.0455 35.0743 58.4531C34.4327 58.8954 33.7217 59.2275 32.9708 59.4358C32.0618 59.6807 31.1233 59.798 30.182 59.7844M31.5583 55.9348C32.2591 55.9457 32.9559 55.8276 33.6138 55.5862C34.18 55.38 34.6933 55.0505 35.1164 54.6216C35.5279 54.1925 35.8425 53.6801 36.039 53.119C36.2624 52.5006 36.3733 51.8472 36.3665 51.1897V50.2642C35.0594 50.2567 33.7535 50.3471 32.4599 50.5346C31.4476 50.6497 30.4746 50.9929 29.614 51.5383C29.2706 51.766 28.9922 52.079 28.8062 52.4468C28.6202 52.8145 28.533 53.2243 28.5532 53.6359C28.5472 54.0594 28.6607 54.476 28.8808 54.8379C29.1218 55.2053 29.4717 55.488 29.8815 55.6463C30.4135 55.8582 30.9828 55.9604 31.5553 55.9469" fill="#FAFAFA"/>
<path d="M56.549 59.7897C55.312 59.805 54.0882 59.5346 52.9729 58.9994C51.8963 58.4698 50.9904 57.6482 50.3584 56.6284H50.0879L49.7033 59.3329H45.8207V31.4484H50.5117V41.3954H50.7431C51.1455 40.788 51.6546 40.2586 52.2456 39.8327C52.862 39.3972 53.5524 39.0775 54.2831 38.8891C55.1129 38.6793 55.9666 38.5783 56.8224 38.5886C58.2422 38.5636 59.6385 38.9531 60.8403 39.7094C62.0063 40.4547 62.9229 41.6047 63.5901 43.1594C64.257 44.714 64.5907 46.7124 64.5907 49.1546C64.5907 51.6228 64.2639 53.6412 63.6107 55.2099C62.9579 56.7785 62.0343 57.9355 60.8403 58.6808C59.5457 59.4523 58.0585 59.84 56.552 59.7987M55.0885 55.7388C56.2424 55.7388 57.159 55.5164 57.8382 55.0657C58.5508 54.5688 59.0674 53.8386 59.2987 53.0011C59.6217 51.8611 59.7707 50.6787 59.7404 49.4941V48.9532C59.7711 47.7489 59.6222 46.5467 59.2987 45.3861C59.0709 44.5422 58.554 43.8052 57.8382 43.3036C57.159 42.8548 56.2424 42.6304 55.0885 42.6304C54.3789 42.6122 53.6746 42.7571 53.03 43.0542C52.4566 43.3336 51.9665 43.7584 51.6086 44.2862C51.2067 44.8962 50.9262 45.5777 50.7821 46.2937C50.592 47.1824 50.5013 48.0896 50.5117 48.9983V49.5002C50.4835 50.6499 50.6459 51.7964 50.9925 52.893C51.2602 53.7345 51.7859 54.4704 52.4951 54.9965C53.2584 55.514 54.167 55.774 55.0885 55.7388Z" fill="#FAFAFA"/>
<path d="M72.5363 31.4484H67.8451V59.3269H72.5363V31.4484Z" fill="#FAFAFA"/>
<path d="M85.4676 59.7903C83.3114 59.7903 81.5164 59.4107 80.082 58.6514C78.6408 57.8886 77.5014 56.6582 76.8514 55.1624C76.1326 53.5937 75.7739 51.6014 75.7758 49.1852C75.7776 46.7691 76.1364 44.7657 76.8514 43.175C77.5064 41.687 78.6451 40.4639 80.082 39.7041C81.5189 38.9467 83.3139 38.5681 85.4676 38.5681C87.4145 38.5681 89.0495 38.9337 90.3714 39.665C91.7151 40.4243 92.7651 41.6127 93.3526 43.0397C94.0158 44.5583 94.3483 46.5247 94.3508 48.9388V50.3302H80.5839C80.6026 51.4152 80.7976 52.4901 81.1608 53.5126C81.4445 54.3139 81.9939 54.9938 82.7176 55.4389C83.5726 55.8996 84.5364 56.1198 85.5064 56.076C86.0658 56.0796 86.6226 56.0017 87.1595 55.8446C87.652 55.7022 88.1101 55.4597 88.5058 55.1324C88.8939 54.8056 89.202 54.3944 89.407 53.9303C89.6333 53.3944 89.7439 52.8169 89.7314 52.2354H94.3658C94.392 53.3894 94.1626 54.5349 93.6926 55.5892C93.2651 56.515 92.6183 57.3227 91.8083 57.9422C90.9614 58.5774 90.0033 59.0483 88.9833 59.3306C87.8433 59.6463 86.6651 59.8021 85.4826 59.7933M80.6739 47.0306H89.482C89.4951 46.2991 89.3933 45.5701 89.1814 44.8699C89.0176 44.3301 88.742 43.8305 88.3733 43.4034C88.0358 43.0237 87.6045 42.7389 87.1233 42.5769C86.5901 42.4013 86.0314 42.316 85.4701 42.3245C84.602 42.2936 83.7389 42.4622 82.9458 42.8174C82.2714 43.1465 81.7233 43.6881 81.3864 44.359C80.9883 45.1966 80.7408 46.0979 80.6564 47.0216" fill="#FAFAFA"/>
<path d="M21.7616 49.191C21.7563 51.2808 21.1317 53.3221 19.9668 55.0571C18.8018 56.7921 17.1488 58.1429 15.2166 58.939C13.2843 59.735 11.1595 59.9405 9.11053 59.5295C7.06153 59.1185 5.18031 58.1095 3.70449 56.63C2.22867 55.1504 1.22446 53.2665 0.818727 51.2165C0.41299 49.1665 0.623927 47.0422 1.42489 45.112C2.22585 43.1817 3.58091 41.5322 5.31888 40.3717C7.05684 39.2113 9.09978 38.5919 11.1895 38.5919C12.5797 38.5935 13.956 38.8689 15.2397 39.4024C16.5234 39.936 17.6894 40.7172 18.6712 41.7015C19.6529 42.6857 20.4312 43.8537 20.9614 45.1388C21.4917 46.4239 21.7636 47.8008 21.7616 49.191Z" fill="#F4772E"/>
<path d="M30.2301 26.917C28.0744 26.917 26.2793 26.5373 24.8449 25.7781C23.4034 25.0152 22.2643 23.7849 21.6144 22.2891C20.8971 20.7204 20.5386 18.728 20.5386 16.3119C20.5386 13.8957 20.8971 11.8974 21.6144 10.3166C22.2693 8.82862 23.4076 7.60556 24.8449 6.84575C26.2813 6.08843 28.0765 5.70879 30.2301 5.70679C32.1774 5.70679 33.8112 6.07341 35.1314 6.80669C36.4758 7.56506 37.5258 8.75375 38.1125 10.1814C38.7797 11.7 39.1133 13.6664 39.1133 16.0805V17.4689H25.3438C25.3622 18.5539 25.5571 19.6288 25.9208 20.6513C26.2063 21.4522 26.7564 22.1317 27.4804 22.5776C28.3341 23.0384 29.297 23.2586 30.2661 23.2147C30.8264 23.2185 31.3843 23.1406 31.922 22.9832C32.4143 22.8379 32.8722 22.5946 33.2683 22.2681C33.6583 21.9431 33.9671 21.5314 34.1698 21.066C34.3983 20.5307 34.51 19.9529 34.4974 19.3711H39.1133C39.14 20.5251 38.9101 21.6706 38.4401 22.7248C38.0127 23.6507 37.3659 24.4583 36.5559 25.0778C35.7086 25.7137 34.7493 26.1846 33.7281 26.4662C32.5892 26.7822 31.412 26.938 30.2301 26.929M25.4219 14.1632H34.23C34.2424 13.4327 34.141 12.7048 33.9294 12.0056C33.7651 11.4657 33.4898 10.9662 33.121 10.539C32.7827 10.1595 32.3521 9.87375 31.8709 9.70962C31.3373 9.53669 30.7789 9.45244 30.2181 9.46019C29.3504 9.43362 28.4881 9.60525 27.6968 9.96206C27.0222 10.2904 26.4749 10.8323 26.1401 11.5037C25.7409 12.3399 25.4936 13.2404 25.4099 14.1632" fill="#283043"/>
<path d="M47.7319 26.9167C47.0795 26.9068 46.4295 26.8354 45.7906 26.7033C45.0511 26.5561 44.3405 26.2891 43.687 25.9129C42.9831 25.5043 42.4043 24.9109 42.0132 24.197C41.5388 23.2752 41.313 22.2457 41.358 21.2099C41.3115 19.992 41.6342 18.7884 42.2837 17.7571C42.9345 16.8141 43.8315 16.0678 44.877 15.5994C46.1463 15.0271 47.4949 14.6502 48.8769 14.4814C50.57 14.252 52.2771 14.1416 53.9856 14.1509V12.4951C53.9948 11.9559 53.903 11.4198 53.7152 10.9144C53.5297 10.4429 53.1824 10.053 52.7355 9.8145C52.2607 9.544 51.5495 9.40881 50.6019 9.40881C49.8429 9.37731 49.0852 9.49575 48.372 9.75738C47.9216 9.91913 47.5315 10.2149 47.2541 10.6048C47.0587 10.9166 46.9547 11.2768 46.9536 11.6446V12.1856H42.3768C42.3504 12.059 42.3374 11.9301 42.3377 11.8009V11.3381C42.3162 10.2446 42.6848 9.17925 43.3775 8.33294C44.1442 7.43369 45.1417 6.76044 46.2624 6.38563C47.6342 5.91171 49.0787 5.68284 50.5297 5.70948C52.3749 5.70948 53.8945 5.96693 55.0885 6.48181C56.1859 6.91831 57.1197 7.68625 57.76 8.67856C58.375 9.72944 58.6812 10.9324 58.6435 12.1495V21.7118C58.6237 21.907 58.652 22.1041 58.7259 22.2858C58.7997 22.4676 58.9169 22.6286 59.0673 22.7546C59.3344 22.9516 59.658 23.0571 59.9899 23.0551H61.222V26.2886C60.9635 26.3938 60.5939 26.514 60.107 26.6552C59.5187 26.8092 58.912 26.881 58.304 26.8686C57.6872 26.8798 57.0744 26.7685 56.5009 26.5411C55.9913 26.3333 55.5375 26.0091 55.1757 25.5944C54.8094 25.1728 54.546 24.6718 54.4064 24.1309H54.1749C53.7253 24.6823 53.2014 25.1688 52.6183 25.5764C51.9764 26.0181 51.2655 26.3503 50.5147 26.5591C49.6058 26.804 48.6672 26.9213 47.7259 26.9077M49.1474 23.0491C49.8489 23.0613 50.5468 22.9442 51.2059 22.7035C51.7717 22.4966 52.2848 22.1672 52.7084 21.7388C53.1183 21.3085 53.4327 20.7965 53.631 20.2362C53.8544 19.6179 53.9654 18.9645 53.9585 18.307V17.3814C52.6514 17.3739 51.3455 17.4644 50.0519 17.6519C49.0395 17.7664 48.0663 18.1097 47.206 18.6556C46.8653 18.8823 46.589 19.1931 46.4037 19.5579C46.2183 19.9228 46.1304 20.3293 46.1482 20.7381C46.1409 21.1618 46.2545 21.5788 46.4758 21.9402C46.7168 22.3076 47.0667 22.5902 47.4765 22.7486C48.0075 22.9603 48.5759 23.0626 49.1474 23.0491Z" fill="#283043"/>
<path d="M63.4126 26.4543V6.16963H67.3195L67.7038 9.37013H67.9713C68.222 8.73756 68.5382 8.13319 68.9151 7.567C69.2876 7.01381 69.7807 6.55244 70.3576 6.21771C71.0151 5.85179 71.7601 5.67109 72.512 5.69482C72.8932 5.69183 73.2732 5.73114 73.6451 5.81201C73.9138 5.86573 74.1776 5.94316 74.4326 6.04341V10.476H73.0288C72.3145 10.4656 71.6026 10.5774 70.9257 10.8066C70.3295 11.0116 69.7938 11.3629 69.3688 11.8283C68.9251 12.326 68.602 12.9194 68.4251 13.5623C68.2101 14.3533 68.1088 15.1708 68.1245 15.9904V26.4423L63.4126 26.4543Z" fill="#283043"/>
<path d="M76.7376 26.4546V6.16992H80.6589L81.0439 8.87456H81.3145C81.7789 8.25306 82.3295 7.70069 82.9489 7.23375C83.6007 6.74675 84.3276 6.36919 85.1007 6.11583C85.9645 5.83666 86.8676 5.69965 87.7751 5.71013C88.9464 5.68723 90.1082 5.92431 91.177 6.40431C92.1751 6.879 92.992 7.66456 93.5057 8.64313C94.067 9.67088 94.3482 11.0453 94.3507 12.7662V26.4576H89.6201V13.6136C89.637 13.0029 89.5532 12.3937 89.3707 11.8106C89.2351 11.3717 88.9882 10.9752 88.6545 10.6594C88.3207 10.3436 87.9114 10.1191 87.4657 10.0075C86.9639 9.87494 86.4464 9.81025 85.927 9.81513C85.122 9.80475 84.3301 10.0191 83.6401 10.4342C82.9614 10.8456 82.4039 11.4307 82.0264 12.1291C81.6139 12.8991 81.407 13.7622 81.4251 14.6354V26.4365L76.7376 26.4546Z" fill="#283043"/>
<path d="M30.14 59.7903C29.4876 59.7805 28.8376 59.7091 28.1986 59.577C27.4592 59.4293 26.7488 59.1624 26.095 58.7867C25.3918 58.3771 24.8132 57.784 24.4212 57.0707C23.948 56.1486 23.7232 55.1191 23.7691 54.0837C23.7178 52.8672 24.0352 51.6637 24.6796 50.6308C25.3323 49.6884 26.2301 48.9423 27.276 48.4731C28.545 47.9 29.8937 47.523 31.2758 47.3552C32.9689 47.1255 34.676 47.015 36.3846 47.0246V45.3688C36.3932 44.8299 36.3025 44.2941 36.1172 43.7881C35.9296 43.317 35.5815 42.9274 35.1345 42.6882C34.6597 42.4177 33.9504 42.2825 33.0008 42.2825C32.2418 42.251 31.4842 42.3695 30.771 42.6311C30.3214 42.7929 29.9323 43.0887 29.6561 43.4785C29.4595 43.7897 29.3553 44.1503 29.3556 44.5184V45.0593H24.8178C24.793 44.9325 24.78 44.8037 24.7788 44.6746V44.2118C24.7585 43.1185 25.127 42.0536 25.8186 41.2067C26.5853 40.3074 27.5827 39.6341 28.7035 39.2594C30.0754 38.7864 31.5198 38.5586 32.9708 38.5862C34.8199 38.5862 36.3395 38.8427 37.5295 39.3555C38.6274 39.7912 39.5615 40.5593 40.2011 41.5523C40.8237 42.6007 41.1363 43.8043 41.1027 45.0232V54.5855C41.0825 54.7804 41.1102 54.9774 41.1835 55.1591C41.2569 55.3409 41.3735 55.5019 41.5233 55.6283C41.7917 55.8252 42.1162 55.9305 42.4489 55.9288H43.678V59.1653C43.4226 59.2705 43.05 59.3907 42.5632 59.532C41.9748 59.6859 41.368 59.7577 40.76 59.7453C40.1433 59.7563 39.5305 59.645 38.957 59.4177C38.4474 59.21 37.9935 58.8858 37.6317 58.4712C37.2654 58.0495 37.002 57.5485 36.8624 57.0076H36.631C36.1814 57.559 35.6575 58.0455 35.0743 58.4531C34.4327 58.8954 33.7217 59.2275 32.9708 59.4358C32.0618 59.6807 31.1233 59.798 30.182 59.7844M31.5583 55.9348C32.2591 55.9457 32.9559 55.8276 33.6138 55.5862C34.18 55.38 34.6933 55.0505 35.1164 54.6216C35.5279 54.1925 35.8425 53.6801 36.039 53.119C36.2624 52.5006 36.3733 51.8472 36.3665 51.1897V50.2642C35.0594 50.2567 33.7535 50.3471 32.4599 50.5346C31.4476 50.6497 30.4746 50.9929 29.614 51.5383C29.2706 51.766 28.9922 52.079 28.8062 52.4468C28.6202 52.8145 28.533 53.2243 28.5532 53.6359C28.5472 54.0594 28.6607 54.476 28.8808 54.8379C29.1218 55.2053 29.4717 55.488 29.8815 55.6463C30.4135 55.8582 30.9828 55.9604 31.5553 55.9469" fill="#283043"/>
<path d="M56.549 59.7897C55.312 59.805 54.0882 59.5346 52.9729 58.9994C51.8963 58.4698 50.9904 57.6482 50.3584 56.6284H50.0879L49.7033 59.3329H45.8207V31.4484H50.5117V41.3954H50.7431C51.1455 40.788 51.6546 40.2586 52.2456 39.8327C52.862 39.3972 53.5524 39.0775 54.2831 38.8891C55.1129 38.6793 55.9666 38.5783 56.8224 38.5886C58.2422 38.5636 59.6385 38.9531 60.8403 39.7094C62.0063 40.4547 62.9229 41.6047 63.5901 43.1594C64.257 44.714 64.5907 46.7124 64.5907 49.1546C64.5907 51.6228 64.2639 53.6412 63.6107 55.2099C62.9579 56.7785 62.0343 57.9355 60.8403 58.6808C59.5457 59.4523 58.0585 59.84 56.552 59.7987M55.0885 55.7388C56.2424 55.7388 57.159 55.5164 57.8382 55.0657C58.5508 54.5688 59.0674 53.8386 59.2987 53.0011C59.6217 51.8611 59.7707 50.6787 59.7404 49.4941V48.9532C59.7711 47.7489 59.6222 46.5467 59.2987 45.3861C59.0709 44.5422 58.554 43.8052 57.8382 43.3036C57.159 42.8548 56.2424 42.6304 55.0885 42.6304C54.3789 42.6122 53.6746 42.7571 53.03 43.0542C52.4566 43.3336 51.9665 43.7584 51.6086 44.2862C51.2067 44.8962 50.9262 45.5777 50.7821 46.2937C50.592 47.1824 50.5013 48.0896 50.5117 48.9983V49.5002C50.4835 50.6499 50.6459 51.7964 50.9925 52.893C51.2602 53.7345 51.7859 54.4704 52.4951 54.9965C53.2584 55.514 54.167 55.774 55.0885 55.7388Z" fill="#283043"/>
<path d="M72.5363 31.4484H67.8451V59.3269H72.5363V31.4484Z" fill="#283043"/>
<path d="M85.4676 59.7903C83.3114 59.7903 81.5164 59.4107 80.082 58.6514C78.6408 57.8886 77.5014 56.6582 76.8514 55.1624C76.1326 53.5937 75.7739 51.6014 75.7758 49.1852C75.7776 46.7691 76.1364 44.7657 76.8514 43.175C77.5064 41.687 78.6451 40.4639 80.082 39.7041C81.5189 38.9467 83.3139 38.5681 85.4676 38.5681C87.4145 38.5681 89.0495 38.9337 90.3714 39.665C91.7151 40.4243 92.7651 41.6127 93.3526 43.0397C94.0158 44.5583 94.3483 46.5247 94.3508 48.9388V50.3302H80.5839C80.6026 51.4152 80.7976 52.4901 81.1608 53.5126C81.4445 54.3139 81.9939 54.9938 82.7176 55.4389C83.5726 55.8996 84.5364 56.1198 85.5064 56.076C86.0658 56.0796 86.6226 56.0017 87.1595 55.8446C87.652 55.7022 88.1101 55.4597 88.5058 55.1324C88.8939 54.8056 89.202 54.3944 89.407 53.9303C89.6333 53.3944 89.7439 52.8169 89.7314 52.2354H94.3658C94.392 53.3894 94.1626 54.5349 93.6926 55.5892C93.2651 56.515 92.6183 57.3227 91.8083 57.9422C90.9614 58.5774 90.0033 59.0483 88.9833 59.3306C87.8433 59.6463 86.6651 59.8021 85.4826 59.7933M80.6739 47.0306H89.482C89.4951 46.2991 89.3933 45.5701 89.1814 44.8699C89.0176 44.3301 88.742 43.8305 88.3733 43.4034C88.0358 43.0237 87.6045 42.7389 87.1233 42.5769C86.5901 42.4013 86.0314 42.316 85.4701 42.3245C84.602 42.2936 83.7389 42.4622 82.9458 42.8174C82.2714 43.1465 81.7233 43.6881 81.3864 44.359C80.9883 45.1966 80.7408 46.0979 80.6564 47.0216" fill="#283043"/>
<path d="M21.7616 49.191C21.7563 51.2808 21.1317 53.3221 19.9668 55.0571C18.8018 56.7921 17.1488 58.1429 15.2166 58.939C13.2843 59.735 11.1595 59.9405 9.11053 59.5295C7.06153 59.1185 5.18031 58.1095 3.70449 56.63C2.22867 55.1504 1.22446 53.2665 0.818727 51.2165C0.41299 49.1665 0.623927 47.0422 1.42489 45.112C2.22585 43.1817 3.58091 41.5322 5.31888 40.3717C7.05684 39.2113 9.09978 38.5919 11.1895 38.5919C12.5797 38.5935 13.956 38.8689 15.2397 39.4024C16.5234 39.936 17.6894 40.7172 18.6712 41.7015C19.6529 42.6857 20.4312 43.8537 20.9614 45.1388C21.4917 46.4239 21.7636 47.8008 21.7616 49.191Z" fill="#F4772E"/>
</g>
<defs>
<clipPath id="clip0_594_1781">
<rect width="93.75" height="60" fill="white" transform="translate(0.617615)"/>
</clipPath>
</defs>
</svg>
