<svg width="18" height="18" viewBox="0 0 18 18" fill="none" xmlns="http://www.w3.org/2000/svg">
<rect width="18" height="18" rx="4" fill="#40EC7E"/>
<path d="M13.3248 6.08341L10.7499 3.50862C10.5294 3.28812 10.2366 3.16675 9.92508 3.16675H7.24992C5.64167 3.16675 4.33325 4.47516 4.33325 6.08341V11.9167C4.33325 13.525 5.64167 14.8334 7.24992 14.8334H10.7499C12.3582 14.8334 13.6666 13.525 13.6666 11.9167V6.90821C13.6666 6.60138 13.5423 6.30041 13.3248 6.08341ZM10.7499 5.15821L11.6751 6.08341H11.6249C11.1425 6.08341 10.7499 5.69083 10.7499 5.20841V5.15821ZM10.7499 13.6667H7.24992C6.28509 13.6667 5.49992 12.8816 5.49992 11.9167V6.08341C5.49992 5.11858 6.28509 4.33341 7.24992 4.33341H9.58325V5.20841C9.58325 6.33425 10.4991 7.25008 11.6249 7.25008H12.4999V11.9167C12.4999 12.8816 11.7148 13.6667 10.7499 13.6667Z" fill="white"/>
</svg>
