<svg width="232" height="60" viewBox="0 0 232 60" fill="none" xmlns="http://www.w3.org/2000/svg">
<path d="M111.388 49.4526C107.73 52.3572 103.882 53.8003 99.8418 53.7818C96.9108 53.7818 94.9159 52.8682 93.857 51.0409C94.0813 50.633 94.2164 50.1821 94.2531 49.718C99.2701 48.5905 103.053 47.0643 105.601 45.1393C108.302 43.0929 109.653 40.4194 109.653 37.1187C109.653 34.7739 108.841 32.9163 107.221 31.53C105.601 30.1438 103.557 29.4625 101.093 29.4625C96.9504 29.4625 93.4227 31.369 90.5102 35.1819C87.5976 38.9948 86.144 43.1246 86.1493 47.5713C86.1401 48.7367 86.2637 49.8995 86.5177 51.037C84.4052 52.8669 82.3364 53.7818 80.3111 53.7818C77.5385 53.7818 76.1681 51.2073 76.1681 46.0345V45.2423C76.5272 44.6984 77.9386 42.6559 80.4022 39.115C82.8658 35.574 84.5927 32.9916 85.5829 31.3676C86.5731 29.7437 87.9092 27.3672 89.5912 24.2382C92.6543 18.6429 94.1845 13.2047 94.1818 7.92367C94.1932 7.29137 94.1641 6.65899 94.0947 6.03041C93.9747 4.41437 93.2507 2.90272 92.0667 1.79632C91.4666 1.20826 90.7547 0.746493 89.973 0.438314C89.1913 0.130135 88.3558 -0.0182015 87.5158 0.00207477C79.1083 0.00207477 73.5223 9.97272 70.7577 29.914C69.7384 29.5605 68.6678 29.3772 67.589 29.3714C63.5648 29.3714 59.9909 31.3993 56.8671 35.4552C56.0558 36.5136 55.3351 37.6385 54.7125 38.8179L52.4508 45.6027C52.2834 46.7025 52.2 47.8134 52.2013 48.9259C52.2013 52.0945 53.0714 54.6769 54.8115 56.6732C55.6029 57.6211 56.5962 58.3801 57.7187 58.8948C58.8412 59.4094 60.0645 59.6667 61.2993 59.6477C65.8621 59.6477 69.0149 57.5142 70.7577 53.2471C72.6192 57.3954 75.5634 59.4682 79.5902 59.4655C83.0044 59.4655 86.1955 58.309 89.1635 55.9959C89.3734 56.2137 89.6031 56.4276 89.8408 56.6296C92.3044 58.6998 95.2922 59.7362 98.8041 59.7388C102.354 59.7288 105.842 58.8141 108.94 57.0811C110.302 56.3487 111.602 55.5048 112.825 54.5581L112.853 54.6215L111.388 49.4526ZM79.3645 18.3326C79.9388 16.303 80.617 14.3041 81.3964 12.3439C82.5952 9.10135 84.1795 7.48006 86.1493 7.48006C87.29 7.48006 87.8604 8.60625 87.8604 10.8586C87.8604 13.111 87.2597 15.7674 86.0582 18.8277C85.1203 21.3386 84.0127 23.7828 82.743 26.1433C81.7211 27.9468 80.5501 29.8837 79.2298 31.9538C77.9095 34.024 77.1887 35.1212 77.0672 35.2453C76.8513 35.6786 76.6106 36.0991 76.3463 36.5048C77.6666 26.7586 78.6726 20.7012 79.3645 18.3326ZM69.3159 42.2519C68.7192 46.4556 67.894 49.3602 66.8404 50.9657C65.7868 52.5711 64.4204 53.3633 62.741 53.3421C60.6286 53.3421 59.4879 51.9598 59.3189 49.1952V48.205C59.3141 44.9828 60.4349 41.8602 62.4875 39.3764C64.5999 36.7358 67.2405 35.4156 70.4091 35.4156L69.3159 42.2519ZM95.6077 38.6872C97.4112 36.4375 99.2873 35.3113 101.236 35.3086C103.185 35.306 104.162 36.147 104.167 37.8317C104.167 40.6544 100.412 43.357 92.9025 45.9394C92.9025 43.3623 93.8042 40.9475 95.6077 38.6951V38.6872Z" fill="#2D1E2F"/>
<path d="M54.6967 38.8178C52.7104 40.3307 50.4091 41.3771 47.9633 41.8795C48.1592 40.928 48.2797 39.9625 48.3237 38.992C48.3211 36.2353 47.4629 33.9592 45.7492 32.1636C44.9438 31.291 43.9626 30.5991 42.8702 30.1335C41.7778 29.6679 40.5992 29.4391 39.4119 29.4623C35.0867 29.4623 31.3174 31.3688 28.1038 35.1817C24.9561 38.8186 23.2424 43.4783 23.2836 48.288C23.2771 48.9622 23.3194 49.636 23.4103 50.3041C20.0093 53.1083 16.7773 54.5078 13.7143 54.5025C11.6705 54.5025 10.0188 53.8741 8.75931 52.6172C6.14122 49.9872 6.5373 45.0441 7.76515 41.8319C10.3001 35.158 17.1998 34.8094 23.2123 33.4707L24.0282 33.2964L23.2123 29.4425C23.2123 29.4425 22.8399 27.6879 22.8162 27.676C22.6974 27.1294 16.7443 28.8405 16.1026 29.0069C13.3895 29.7079 10.6328 30.5318 8.26025 32.1082C5.34778 34.0481 3.06099 36.7917 1.67741 40.006C0.699305 42.3124 0.196812 44.7926 0.200028 47.2978C0.200028 50.3054 0.951259 52.798 2.45372 54.7758C4.97807 58.0844 8.26553 59.7374 12.3161 59.7347C16.3667 59.7321 19.9103 58.7392 22.9469 56.7562C23.7191 56.2568 24.4648 55.7174 25.1808 55.1402C25.4767 55.5816 25.8023 56.0024 26.1551 56.3997C27.07 57.4529 28.207 58.2902 29.4844 58.8511C30.7617 59.412 32.1475 59.6827 33.542 59.6436C40.5685 59.6436 45.0732 55.6498 47.0563 47.6622C48.9197 47.1555 50.7272 46.4614 52.4509 45.5907L54.7125 38.8178C54.7072 38.8173 54.7019 38.8173 54.6967 38.8178ZM39.2495 51.2467C37.8949 52.9895 36.4426 53.8609 34.8927 53.8609C32.1623 53.8609 30.6493 52.2858 30.3536 49.1356C30.4351 48.8416 30.475 48.5377 30.4724 48.2326C30.4731 47.9316 30.4167 47.6332 30.3061 47.3533C30.4366 44.607 31.2713 41.9404 32.7301 39.6099C34.354 36.9377 36.3067 35.6016 38.5881 35.6016C38.8456 35.5851 39.1037 35.6247 39.3444 35.7177C39.5851 35.8107 39.8027 35.9549 39.9823 36.1403C40.3618 36.6299 40.568 37.2318 40.5685 37.8513C39.0053 39.3485 38.2237 40.847 38.2237 42.3468C38.2237 43.8466 39.3354 45.0758 41.5587 46.0343C41.3791 47.7824 40.6147 49.5251 39.2654 51.2626L39.2495 51.2467Z" fill="#2D1E2F"/>
<path d="M151.209 25.9927C148.365 25.9927 146.944 24.7226 146.944 22.1824C146.917 21.5784 147.028 20.9763 147.269 20.4218C147.51 19.8673 147.874 19.3749 148.334 18.9821C149.322 18.171 150.573 17.7485 151.851 17.7938C154.491 17.7938 155.812 19.0085 155.812 21.4378C155.844 22.0491 155.749 22.6606 155.531 23.2329C155.314 23.8051 154.979 24.3256 154.548 24.7609C154.102 25.1785 153.577 25.5026 153.003 25.7141C152.43 25.9257 151.82 26.0204 151.209 25.9927Z" fill="#2D1E2F"/>
<path d="M228.56 42.5806C224.373 46.5057 213.113 53.7817 208.419 53.7817C205.174 53.7817 203.076 52.6634 202.126 50.4269C202.207 50.2365 202.266 50.0371 202.3 49.8328C207.581 48.7 211.542 47.1355 214.182 45.1392C216.884 43.0928 218.234 40.4193 218.234 37.1186C218.234 34.7738 217.442 32.9162 215.802 31.5299C214.163 30.1437 212.139 29.4624 209.675 29.4624C205.532 29.4624 202.003 31.3689 199.088 35.1818C196.173 38.9947 194.72 43.1245 194.731 47.5712C194.725 48.5634 194.813 49.554 194.992 50.5299L197.282 55.5007C197.624 55.9121 198.003 56.2913 198.414 56.6335C200.878 58.7037 203.866 59.7401 207.378 59.7427C210.927 59.7327 214.416 58.818 217.513 57.085C220.757 55.3145 229.923 48.0583 231.424 45.9552C231.495 45.8482 231.558 45.7492 231.618 45.6462L228.56 42.5806ZM204.181 38.695C205.982 36.4453 207.858 35.3191 209.81 35.3165C211.761 35.3138 212.738 36.1548 212.741 37.8395C212.741 40.6622 208.986 43.3648 201.476 45.9472C201.479 43.3648 202.38 40.9474 204.181 38.695Z" fill="#2D1E2F"/>
<path d="M204.228 1.8477C203.676 1.26068 203.004 0.799689 202.258 0.496191C201.511 0.192693 200.708 0.0538385 199.903 0.0891081C196.843 0.0891081 193.93 1.57441 191.166 4.54501C188.739 7.21491 186.736 10.2403 185.225 13.5162C185.895 11.3743 186.348 9.17017 186.575 6.93733V6.21646C186.621 4.60895 186.04 3.04655 184.955 1.85958C184.405 1.27094 183.734 0.808026 182.988 0.502473C182.242 0.19692 181.439 0.0559219 180.634 0.0891081C177.571 0.0891081 174.658 1.57441 171.896 4.54501C169.134 7.5156 166.825 11.2546 164.969 15.762C161.185 25.1913 158.904 34.2629 158.125 42.9766C158.061 43.6341 158.034 44.5966 158.034 45.8601C158.028 47.0974 158.109 48.3335 158.275 49.5595L160.077 55.1719C160.196 55.3937 160.327 55.6037 160.474 55.8136C162.092 58.2402 164.404 59.4562 167.409 59.4615C171.481 59.4615 175.366 57.856 179.066 54.6451C179.268 55.0477 179.494 55.4379 179.743 55.8136C181.367 58.2402 183.68 59.4562 186.682 59.4615C190.379 59.4615 193.916 58.1412 197.293 55.5007L195.004 50.5299C192.545 52.6423 190.252 53.6985 188.124 53.6985C185.24 53.6985 183.799 51.2653 183.799 46.3988C183.827 44.9226 183.94 43.4494 184.139 41.9864C189.362 37.9015 194.136 32.5558 198.462 25.9492C202.787 19.3426 205.25 13.0053 205.852 6.93733V6.21646C205.9 4.6044 205.318 3.03725 204.228 1.8477ZM170.768 17.1205C173.321 10.6882 175.859 7.47468 178.38 7.47996C179.402 7.47996 179.913 8.082 179.913 9.27816C179.852 12.6422 178.335 16.8472 175.362 21.8933C172.557 26.7093 169.283 31.2361 165.587 35.4075C166.631 29.1387 168.368 23.0054 170.768 17.1205ZM177.382 42.9766C177.324 43.6341 177.294 44.5953 177.291 45.8601C177.288 46.8735 177.34 47.8862 177.446 48.8941C174.324 52.097 171.453 53.6985 168.831 53.6985C165.947 53.6985 164.507 51.2653 164.51 46.3988C164.544 44.9224 164.663 43.4492 164.866 41.9864C170.094 37.9015 174.87 32.5558 179.192 25.9492C180.46 24.0272 181.609 22.0299 182.634 19.9684C179.913 27.3835 178.148 35.1152 177.382 42.9766ZM194.635 21.8933C191.828 26.7075 188.554 31.2341 184.86 35.4075C185.9 29.1379 187.638 23.0041 190.041 17.1205C192.602 10.6882 195.14 7.47468 197.654 7.47996C198.671 7.47996 199.186 8.082 199.186 9.27816C199.123 12.6422 197.606 16.8472 194.635 21.8933Z" fill="#2D1E2F"/>
<path d="M160.066 55.1721V55.1484C156.701 58.0292 153.238 59.4669 149.676 59.4617C146.975 59.4617 144.812 58.6352 143.189 56.9822C141.565 55.3292 140.754 53.1825 140.757 50.5419C140.789 48.2671 141.063 46.002 141.573 43.7848C138.536 45.2266 135.641 45.9474 132.887 45.9474H132.617L135.14 40.3627C138.314 39.8462 141.28 38.4492 143.699 36.3306C144.155 35.1028 145.929 31.2806 146.385 30.4567C146.579 30.1082 146.781 29.7874 146.947 29.4943H154.275C154.033 30.1417 153.73 30.7649 153.372 31.3558C152.679 32.5441 150.476 37.6931 149.411 41.1747C148.346 44.6562 147.787 47.4486 147.787 49.5517C147.787 52.3718 148.843 53.7819 150.956 53.7819C153.068 53.7819 155.515 52.3745 158.295 49.5597L160.066 55.1721Z" fill="#2D1E2F"/>
<path d="M137.664 32.3458C137.664 33.3597 136.826 36.0214 135.152 40.3307V40.3624L132.617 45.9472C129.132 52.6171 125.138 57.1219 120.636 59.4614C120.06 59.7974 119.409 59.9827 118.743 60.0001C116.757 60.0001 114.985 58.5887 113.427 55.766C113.225 55.4016 113.031 55.0134 112.853 54.6173L111.388 49.4683C111.183 48.0398 111.088 46.5979 111.102 45.155C111.102 41.012 111.756 33.938 113.063 29.5098H119.816V29.5732C119.054 33.8411 118.631 38.1626 118.553 42.4973C118.526 44.6023 118.684 46.7056 119.024 48.7831C119.209 49.9764 119.495 51.1517 119.88 52.2963C120.149 52.9895 120.315 53.338 120.375 53.338L121.563 52.4349C122.355 51.8329 123.391 50.6618 124.672 48.9217C126.041 47.0401 127.203 45.0163 128.138 42.8855V41.4437C128.138 37.5991 128.875 34.6404 130.348 32.5676C131.817 30.4921 133.394 29.4623 135.077 29.4623C135.755 29.4475 136.414 29.6878 136.923 30.1357C137.417 30.5872 137.664 31.3239 137.664 32.3458Z" fill="#2D1E2F"/>
</svg>
