<svg width="18" height="18" viewBox="0 0 18 18" fill="none" xmlns="http://www.w3.org/2000/svg">
<rect width="18" height="18" rx="4" fill="#2196F3"/>
<path d="M11.7458 7.42098C11.9739 7.64906 11.9739 8.01777 11.7458 8.24585L8.82916 11.1625C8.71542 11.2763 8.56608 11.3334 8.41675 11.3334C8.26741 11.3334 8.11808 11.2763 8.00433 11.1625L6.25433 9.41252C6.02625 9.18443 6.02625 8.81573 6.25433 8.58765C6.48241 8.35956 6.85108 8.35956 7.07916 8.58765L8.41675 9.92528L10.921 7.42098C11.1491 7.1929 11.5177 7.1929 11.7458 7.42098ZM14.8334 9.00008C14.8334 12.2166 12.2166 14.8334 9.00008 14.8334C5.78358 14.8334 3.16675 12.2166 3.16675 9.00008C3.16675 5.78358 5.78358 3.16675 9.00008 3.16675C12.2166 3.16675 14.8334 5.78358 14.8334 9.00008ZM13.6667 9.00008C13.6667 6.427 11.5732 4.33341 9.00008 4.33341C6.427 4.33341 4.33341 6.427 4.33341 9.00008C4.33341 11.5732 6.427 13.6667 9.00008 13.6667C11.5732 13.6667 13.6667 11.5732 13.6667 9.00008Z" fill="white"/>
</svg>
