<svg width="18" height="18" viewBox="0 0 18 18" fill="none" xmlns="http://www.w3.org/2000/svg">
<rect width="18" height="18" rx="4" fill="#EC407A"/>
<path d="M14.8043 7.79296C14.3358 5.46896 12.5316 3.66421 10.207 3.1958C9.7794 3.10946 9.3349 3.21916 8.99307 3.49857C8.6524 3.77799 8.45698 4.18981 8.45698 4.62906V7.79296C8.45698 8.7578 9.24215 9.54296 10.207 9.54296H13.371C13.8108 9.54296 14.2227 9.34758 14.5015 9.00691C14.7803 8.66625 14.8912 8.22346 14.8043 7.79296ZM13.5997 8.26721C13.5658 8.30746 13.4923 8.3763 13.371 8.3763H10.207C9.88498 8.3763 9.62365 8.11496 9.62365 7.79296V4.62906C9.62365 4.50773 9.6919 4.43418 9.73274 4.40035C9.76599 4.37351 9.82959 4.33327 9.91709 4.33327C9.93576 4.33327 9.95557 4.33501 9.97716 4.33968C11.8392 4.71476 13.2858 6.16082 13.6603 8.02282C13.6843 8.14124 13.6323 8.22696 13.5997 8.26721ZM14.0033 10.9197C13.2899 13.2606 11.1619 14.8333 8.70841 14.8333C5.65291 14.8333 3.16675 12.3471 3.16675 9.2916C3.16675 6.8381 4.73941 4.71016 7.08032 3.99674C7.38891 3.90341 7.7144 4.07725 7.80831 4.38525C7.90165 4.69325 7.72784 5.01922 7.41984 5.11313C5.57417 5.67547 4.33341 7.35494 4.33341 9.2916C4.33341 11.7043 6.29575 13.6666 8.70841 13.6666C10.6451 13.6666 12.3245 12.4258 12.8868 10.5802C12.9813 10.2716 13.308 10.0995 13.6148 10.1917C13.9228 10.2856 14.0967 10.6117 14.0033 10.9197Z" fill="white"/>
</svg>
