<svg width="41" height="50" viewBox="0 0 41 50" fill="none" xmlns="http://www.w3.org/2000/svg">
<g opacity="0.3">
<path opacity="0.3" d="M28.2898 10.589C27.1824 10.5879 26.1207 10.1475 25.3377 9.3645C24.5547 8.58148 24.1143 7.51978 24.1132 6.41243V0.613526H5.45258C4.73663 0.61326 4.02764 0.754021 3.36611 1.02782C2.70459 1.30161 2.10348 1.70307 1.59714 2.20923C1.09079 2.71538 0.689126 3.31634 0.415083 3.97776C0.141041 4.63918 -4.94337e-08 5.34811 0 6.06405V38.9213C-4.94337e-08 39.6372 0.141041 40.3462 0.415083 41.0076C0.689126 41.669 1.09079 42.27 1.59714 42.7761C2.10348 43.2823 2.70459 43.6837 3.36611 43.9575C4.02764 44.2313 4.73663 44.3721 5.45258 44.3718H27.8543C29.2999 44.3718 30.6862 43.7976 31.7084 42.7754C32.7306 41.7532 33.3048 40.3668 33.3048 38.9213V10.589H28.2898Z" fill="#0072FF"/>
</g>
<path d="M33.3049 10.589H28.2898C27.1825 10.5879 26.1208 10.1475 25.3378 9.36449C24.5547 8.58148 24.1144 7.51978 24.1133 6.41243V0.613525L33.3049 10.589Z" fill="#0072FF"/>
<path d="M26.4527 17.573H5.54171C5.3408 17.573 5.14813 17.4932 5.00606 17.3511C4.864 17.209 4.78418 17.0164 4.78418 16.8155C4.78392 16.7158 4.80332 16.6171 4.84127 16.5249C4.87922 16.4328 4.93498 16.349 5.00535 16.2785C5.07572 16.2079 5.1593 16.152 5.25134 16.1138C5.34338 16.0756 5.44206 16.0559 5.54171 16.0559H26.4527C26.6541 16.0559 26.8473 16.1359 26.9898 16.2784C27.1322 16.4208 27.2122 16.614 27.2122 16.8155C27.2117 17.0166 27.1314 17.2092 26.989 17.3513C26.8467 17.4933 26.6538 17.573 26.4527 17.573Z" fill="#0072FF"/>
<path d="M26.4527 22.104H5.54171C5.3408 22.104 5.14813 22.0242 5.00606 21.8821C4.864 21.74 4.78418 21.5474 4.78418 21.3465C4.78392 21.2468 4.80332 21.1481 4.84127 21.0559C4.87922 20.9638 4.93498 20.88 5.00535 20.8095C5.07572 20.7389 5.1593 20.683 5.25134 20.6448C5.34338 20.6066 5.44206 20.5869 5.54171 20.5869H26.4527C26.6541 20.5869 26.8473 20.6669 26.9898 20.8093C27.1322 20.9518 27.2122 21.145 27.2122 21.3465C27.2117 21.5476 27.1314 21.7402 26.989 21.8822C26.8467 22.0242 26.6538 22.104 26.4527 22.104Z" fill="#0072FF"/>
<path d="M26.4527 26.6345H5.54171C5.44206 26.6345 5.34338 26.6148 5.25134 26.5767C5.1593 26.5385 5.07572 26.4825 5.00535 26.4119C4.93498 26.3414 4.87922 26.2576 4.84127 26.1655C4.80332 26.0733 4.78392 25.9746 4.78418 25.875C4.78418 25.674 4.864 25.4814 5.00606 25.3393C5.14813 25.1973 5.3408 25.1174 5.54171 25.1174H26.4527C26.6538 25.1174 26.8467 25.1972 26.989 25.3392C27.1314 25.4812 27.2117 25.6739 27.2122 25.875C27.2122 26.0764 27.1322 26.2696 26.9898 26.412C26.8473 26.5545 26.6541 26.6345 26.4527 26.6345Z" fill="#0072FF"/>
<path d="M18.2009 31.1655H5.54171C5.44206 31.1655 5.34338 31.1459 5.25134 31.1077C5.1593 31.0695 5.07572 31.0134 5.00535 30.9429C4.93498 30.8723 4.87922 30.7886 4.84127 30.6965C4.80332 30.6043 4.78392 30.5056 4.78418 30.406C4.78418 30.2051 4.864 30.0123 5.00606 29.8703C5.14813 29.7282 5.3408 29.6484 5.54171 29.6484H18.2009C18.4018 29.6484 18.5945 29.7282 18.7366 29.8703C18.8786 30.0123 18.9584 30.2051 18.9584 30.406C18.9587 30.5056 18.9393 30.6043 18.9013 30.6965C18.8634 30.7886 18.8076 30.8723 18.7373 30.9429C18.6669 31.0134 18.5833 31.0695 18.4913 31.1077C18.3992 31.1459 18.3006 31.1655 18.2009 31.1655Z" fill="#0072FF"/>
<path d="M37.2591 35.1702H11.9326C10.1361 35.1702 8.67969 36.6265 8.67969 38.4231V45.974C8.67969 47.7706 10.1361 49.2269 11.9326 49.2269H37.2591C39.0556 49.2269 40.512 47.7706 40.512 45.974V38.4231C40.512 36.6265 39.0556 35.1702 37.2591 35.1702Z" fill="#0072FF"/>
<path d="M12.3914 43.8333V45.3058H10.8662V43.8333H12.3914Z" fill="white"/>
<path d="M18.2533 43.8373C17.9992 44.2974 17.6162 44.6733 17.1515 44.9189C16.628 45.1866 16.046 45.3196 15.4582 45.3057H13.1572V39.2152H15.4582C16.0464 39.2009 16.6292 39.3309 17.1555 39.5939C17.6188 39.8345 18.0007 40.2065 18.2533 40.6634C18.5152 41.1496 18.6471 41.6952 18.6361 42.2473C18.6466 42.8013 18.5148 43.3487 18.2533 43.8373ZM16.6694 43.5314C16.834 43.3624 16.9616 43.1609 17.0439 42.9398C17.1262 42.7187 17.1615 42.4828 17.1474 42.2473C17.1616 42.0121 17.1264 41.7765 17.044 41.5556C16.9617 41.3348 16.8341 41.1337 16.6694 40.9652C16.3004 40.6416 15.8184 40.477 15.3285 40.5074H14.6318V43.9872H15.3285C15.818 44.0172 16.2996 43.8535 16.6694 43.5314Z" fill="white"/>
<path d="M23.9315 39.5207C24.3949 39.7839 24.7779 40.1683 25.0394 40.6327C25.3135 41.1231 25.4533 41.6771 25.4445 42.2389C25.4548 42.8021 25.315 43.3578 25.0394 43.8491C24.7785 44.3156 24.3946 44.7016 23.9295 44.9652C23.456 45.2356 22.9192 45.3754 22.3739 45.3702C21.8287 45.3754 21.2919 45.2356 20.8184 44.9652C20.3533 44.7016 19.9693 44.3156 19.7084 43.8491C19.4329 43.3578 19.293 42.8021 19.3033 42.2389C19.2928 41.6769 19.4326 41.1224 19.7084 40.6327C19.9707 40.1682 20.3544 39.7839 20.8184 39.5207C21.2919 39.2503 21.8287 39.1105 22.3739 39.1156C22.9198 39.1108 23.4572 39.2506 23.9315 39.5207ZM21.2174 40.9588C20.9186 41.3162 20.7666 41.7737 20.792 42.2389C20.7665 42.7022 20.9186 43.1578 21.2174 43.5129C21.3629 43.6711 21.5413 43.7955 21.7401 43.8774C21.9388 43.9592 22.1531 43.9966 22.3678 43.9868C22.5819 43.9957 22.7953 43.958 22.9932 43.8761C23.1912 43.7943 23.369 43.6703 23.5143 43.5129C23.8145 43.1585 23.9681 42.7027 23.9436 42.2389C23.968 41.7757 23.816 41.3205 23.5183 40.9648C23.3728 40.8066 23.1944 40.6821 22.9957 40.6002C22.7969 40.5183 22.5826 40.481 22.3678 40.4909C22.1536 40.481 21.9399 40.5178 21.7412 40.5986C21.5426 40.6793 21.3639 40.8022 21.2174 40.9588Z" fill="white"/>
<path d="M30.978 39.7658C31.4917 40.1838 31.8411 40.7699 31.9644 41.4206H30.4048C30.2996 41.1509 30.1153 40.9194 29.8762 40.7562C29.6241 40.5921 29.3282 40.5081 29.0275 40.5152C28.8289 40.5089 28.6315 40.5483 28.4506 40.6305C28.2698 40.7127 28.1102 40.8354 27.9844 40.9892C27.7025 41.35 27.5588 41.7997 27.5793 42.2571C27.5587 42.7127 27.7025 43.1606 27.9844 43.519C28.1112 43.6712 28.2711 43.7924 28.4519 43.8735C28.6326 43.9546 28.8295 43.9933 29.0275 43.9869C29.3283 43.9949 29.6245 43.9108 29.8762 43.7458C30.114 43.5857 30.2982 43.3578 30.4048 43.0916H31.9644C31.8391 43.7404 31.49 44.3246 30.978 44.7424C30.4271 45.1631 29.7465 45.378 29.0538 45.35C28.5081 45.3615 27.9694 45.2258 27.4942 44.9571C27.0496 44.6986 26.6888 44.3175 26.4552 43.8593C26.2035 43.3568 26.0776 42.8008 26.0885 42.2389C26.0777 41.6771 26.2035 41.121 26.4552 40.6185C26.6888 40.1603 27.0496 39.7792 27.4942 39.5207C27.9694 39.252 28.5081 39.1163 29.0538 39.1278C29.75 39.1093 30.4308 39.3351 30.978 39.7658Z" fill="white"/>
<path d="M36.4875 45.3054L35.2033 43.4096L34.1015 45.3054H32.4123L34.3608 42.17L32.3535 39.2148H34.1015L35.3512 41.0499L36.4267 39.2148H38.1079L36.1857 42.2814L38.2355 45.3054H36.4875Z" fill="white"/>
</svg>
