<svg width="24" height="25" viewBox="0 0 24 25" fill="none" xmlns="http://www.w3.org/2000/svg">
<g clip-path="url(#clip0_499_1737)">
<path d="M13 22.8544H9C8.73478 22.8544 8.48043 22.7491 8.29289 22.5616C8.10536 22.374 8 22.1197 8 21.8544V15.6544H6C5.73478 15.6544 5.48043 15.5491 5.29289 15.3616C5.10536 15.174 5 14.9197 5 14.6544V11.0544C5 10.7892 5.10536 10.5349 5.29289 10.3473C5.48043 10.1598 5.73478 10.0544 6 10.0544H8V8.35445C8.0701 6.8308 8.74062 5.39689 9.86497 4.36624C10.9893 3.33558 12.476 2.79204 14 2.85445H17C17.2652 2.85445 17.5196 2.9598 17.7071 3.14734C17.8946 3.33488 18 3.58923 18 3.85445V7.45445C18 7.71966 17.8946 7.97402 17.7071 8.16155C17.5196 8.34909 17.2652 8.45445 17 8.45445H14V10.0544H17C17.1544 10.0533 17.307 10.0879 17.4458 10.1555C17.5846 10.2232 17.7058 10.3221 17.8 10.4444C17.8931 10.5686 17.9561 10.7128 17.9839 10.8656C18.0116 11.0183 18.0035 11.1754 17.96 11.3244L16.96 14.9244C16.8995 15.1407 16.768 15.3304 16.5866 15.4628C16.4052 15.5952 16.1844 15.6627 15.96 15.6544H14V21.8544C14 22.1197 13.8946 22.374 13.7071 22.5616C13.5196 22.7491 13.2652 22.8544 13 22.8544ZM10 20.8544H12V14.6544C12 14.3892 12.1054 14.1349 12.2929 13.9473C12.4804 13.7598 12.7348 13.6544 13 13.6544H15.24L15.68 12.0544H13C12.7348 12.0544 12.4804 11.9491 12.2929 11.7616C12.1054 11.574 12 11.3197 12 11.0544V8.35445C12.0257 7.84154 12.2477 7.35816 12.62 7.00445C12.9923 6.65074 13.4864 6.4538 14 6.45445H16V4.85445H14C13.0068 4.79394 12.0298 5.12748 11.281 5.78271C10.5321 6.43794 10.0719 7.36201 10 8.35445V11.0544C10 11.3197 9.89464 11.574 9.70711 11.7616C9.51957 11.9491 9.26522 12.0544 9 12.0544H7V13.6544H9C9.26522 13.6544 9.51957 13.7598 9.70711 13.9473C9.89464 14.1349 10 14.3892 10 14.6544V20.8544Z" fill="white"/>
</g>
<defs>
<clipPath id="clip0_499_1737">
<rect width="24" height="24" fill="white" transform="translate(0 0.854492)"/>
</clipPath>
</defs>
</svg>
