<svg width="204" height="40" viewBox="0 0 204 40" fill="none" xmlns="http://www.w3.org/2000/svg">
<path fill-rule="evenodd" clip-rule="evenodd" d="M89.7494 24.6377C78.859 24.6377 85.3774 15.5941 91.8021 19.0614C95.699 21.1643 92.475 24.6377 89.7494 24.6377ZM94.2346 15.0278C90.4963 14.1567 92.5015 14.0667 87.8271 14.0667C79.0845 14.0667 71.0228 26.8753 79.7312 35.6157C81.0794 36.9688 81.629 37.4027 83.4385 38.3162C87.3958 40.314 91.8064 40.0411 95.1958 37.7721C98.086 39.301 101.763 41.5443 105.535 37.2186C106.886 35.6689 107.523 33.6634 107.11 31.3199C106.153 25.8816 103.826 18.0295 102.644 12.3853C102.162 10.0803 101.926 7.9229 100.2 6.81584C98.2869 5.58729 96.2576 6.3134 95.1159 7.89982C94.3493 8.96482 94.2346 13.1359 94.2346 15.0278Z" fill="url(#paint0_linear_713_907)"/>
<path fill-rule="evenodd" clip-rule="evenodd" d="M39.4366 32.7892C39.4366 34.7007 40.1133 35.5583 41.1057 36.5659C41.7145 37.1843 41.9752 37.5277 42.6848 37.8701C46.4503 39.687 49.955 37.3684 50.9219 34.3339C51.4702 32.6117 50.9952 31.8689 50.9643 29.9105C50.9242 27.3723 50.1454 26.5385 51.9315 26.0618C52.0228 27.1565 55.79 36.0624 56.4955 36.8749C58.8809 39.6237 65.708 39.5582 65.708 32.789C65.708 29.7473 60.5879 26.4208 58.4745 23.684C57.5062 22.4304 56.5159 21.7208 55.7761 20.6159C56.251 19.9067 56.5604 19.7257 57.1032 19.0597L60.9757 14.2825C61.7223 13.3669 63.1084 11.9306 63.4663 10.9716C63.7888 10.1082 63.8561 9.69202 63.4042 8.85426C60.9317 4.26893 55.7086 11.9947 50.0092 15.8108L49.6599 10.3938C49.4325 8.33481 48.6125 7.16138 46.4851 7.16138C43.8061 7.16138 43.7724 9.96954 43.3612 12.0464C42.7633 15.0638 39.4368 31.0621 39.4368 32.789L39.4366 32.7892Z" fill="url(#paint1_linear_713_907)"/>
<path fill-rule="evenodd" clip-rule="evenodd" d="M108.209 20.7798C108.209 23.883 109.719 25.4394 112.87 26.6905C114.835 27.4706 119.224 28.7219 119.743 29.4287C113.088 29.4287 111.08 25.2721 106.925 27.8244C105.396 28.7634 104.685 30.0496 104.685 31.9917C104.685 37.2176 114.472 40 118.14 40C125.501 40 134.364 37.7979 132.107 29.2403C131.286 26.1242 129.201 24.2384 126.661 22.8313C123.408 21.0283 119.303 21.0155 116.304 19.7774C119.38 18.796 121.717 19.0458 124.323 21.0144C127.186 23.1775 130.965 19.0808 124.339 15.5428C118.984 12.6835 108.209 13.6136 108.209 20.7798H108.209Z" fill="url(#paint2_linear_713_907)"/>
<path fill-rule="evenodd" clip-rule="evenodd" d="M170.846 24.3952C160.278 24.3952 166.013 15.5916 172.684 18.7127C174.01 19.3332 175.011 20.6704 174.418 22.1695C173.982 23.2715 172.273 24.3954 170.846 24.3954V24.3952ZM169.244 39.1312C175.63 39.1312 182.059 33.4145 182.059 27.2784C182.059 22.9171 181.495 20.3619 178.347 17.215C172.881 11.7488 163.822 12.5486 159.76 17.7949C155.212 23.6679 155.402 30.2873 160.507 35.3733C162.611 37.4689 166.239 39.1312 169.244 39.1312Z" fill="url(#paint3_linear_713_907)"/>
<path fill-rule="evenodd" clip-rule="evenodd" d="M131.714 11.5046C131.714 14.1251 132.22 15.1669 135.633 15.5947C137.732 15.8581 140.513 15.9898 142.607 15.9898C142.539 18.9996 139.403 28.5473 139.403 32.968C139.403 37.2351 146.535 40.7349 150.173 35.4081C151.643 33.2548 151.028 32.3249 150.938 29.7647C150.784 25.3905 149.975 21.0065 149.975 16.6303C156.162 16.6303 158.914 18.4859 161.754 14.9534C164.407 11.6548 161.108 6.73985 157.168 7.14514C154.763 7.3926 152.779 7.45236 150.344 7.70967C148.292 7.926 145.849 8.23018 143.568 8.30176C141.525 8.36564 138.837 8.82728 136.83 8.93214C135.59 8.99673 131.714 9.08495 131.714 11.5046H131.714Z" fill="url(#paint4_linear_713_907)"/>
<path fill-rule="evenodd" clip-rule="evenodd" d="M179.847 26.1604C179.847 29.6129 181.166 32.1251 182.964 33.935C187.562 38.562 194.822 38.5615 199.637 34.0949C200.739 33.0725 201.152 32.5028 201.959 31.2916C206.886 23.8935 198.103 18.5758 193.524 23.1777C192.727 23.9792 192.827 23.9314 192.347 24.8839C191.313 26.9346 189.138 27.655 189.138 23.918C189.138 22.8021 192.019 21.4568 193.62 20.3909C194.745 19.642 198.109 18.1562 198.109 16.5501C198.109 12.8678 193.159 15.2712 190.42 15.9095C190.454 14.3748 191.165 11.9356 191.047 10.4979C190.783 7.28745 186.118 5.40258 184.37 10.1808C183.747 11.8826 183.266 13.4984 182.69 15.2278C181.876 17.6705 179.847 23.1817 179.847 26.1605L179.847 26.1604Z" fill="url(#paint5_linear_713_907)"/>
<path fill-rule="evenodd" clip-rule="evenodd" d="M69.2824 15.5947C68.786 17.454 68.6157 15.3356 67.815 19.8932C67.4904 21.74 67.3024 23.0408 66.9572 24.8021C66.4751 27.2663 65.4379 32.7513 65.4379 35.1354C65.4379 37.602 68.0609 39.9407 71.2047 39.9407C73.7603 39.9407 76.9716 37.8615 76.9716 34.8153L75.3979 24.8568C75.0661 23.1944 74.8727 21.7289 74.5457 19.9423C73.8097 15.9202 73.5502 17.1779 73.127 15.5946C76.2076 14.4796 74.6062 9.50781 71.2047 9.50781C67.1923 9.50781 66.1848 14.7674 69.2824 15.5946V15.5947Z" fill="url(#paint6_linear_713_907)"/>
<path fill-rule="evenodd" clip-rule="evenodd" d="M48.3709 11.2226C48.542 11.0626 48.6272 10.8651 48.6272 10.6302C48.6272 10.3952 48.542 10.1923 48.3709 10.0214C48.2002 9.85073 47.9971 9.76538 47.7622 9.76538C47.5276 9.76538 47.3296 9.85091 47.1697 10.0214C47.0097 10.1925 46.9293 10.3952 46.9293 10.6302C46.9293 10.8651 47.0095 11.0626 47.1697 11.2226C47.3296 11.3826 47.5276 11.4629 47.7622 11.4629C47.9971 11.4629 48.2002 11.3828 48.3709 11.2226Z" fill="white"/>
<path fill-rule="evenodd" clip-rule="evenodd" d="M60.3093 10.7222C60.3093 10.9571 60.3895 11.1547 60.5497 11.3146C60.7102 11.4746 60.9076 11.555 61.1427 11.555C61.3773 11.555 61.5804 11.4748 61.7511 11.3146C61.9222 11.1547 62.0077 10.9571 62.0077 10.7222C62.0077 10.4873 61.9222 10.2845 61.7511 10.1135C61.5804 9.94277 61.3773 9.85742 61.1427 9.85742C60.9077 9.85742 60.7102 9.94295 60.5497 10.1135C60.3897 10.2845 60.3093 10.4873 60.3093 10.7222Z" fill="white"/>
<path fill-rule="evenodd" clip-rule="evenodd" d="M64.1295 31.6075L55.896 22.7342C55.7677 22.6272 55.5971 22.5631 55.3833 22.542C55.1698 22.5205 54.9882 22.5631 54.8388 22.67C54.6677 22.841 54.577 23.0226 54.5664 23.2148C54.5558 23.407 54.6145 23.5777 54.7427 23.7271L62.9762 32.5368C63.1045 32.6648 63.2698 32.7396 63.4729 32.7609C63.6757 32.7823 63.8627 32.7396 64.0332 32.6329C64.1827 32.5046 64.2682 32.3336 64.2899 32.1203C64.311 31.9068 64.2576 31.7359 64.1293 31.6076L64.1295 31.6075Z" fill="white"/>
<path fill-rule="evenodd" clip-rule="evenodd" d="M71.1469 17.284C71.1469 17.5189 71.227 17.7165 71.3872 17.8764C71.5472 18.0367 71.7451 18.1167 71.9797 18.1167C72.2146 18.1167 72.4179 18.0369 72.5885 17.8764C72.7596 17.7165 72.8446 17.5189 72.8446 17.284C72.8446 17.049 72.7594 16.8463 72.5885 16.6752C72.4178 16.5045 72.2146 16.4192 71.9797 16.4192C71.7451 16.4192 71.5472 16.5047 71.3872 16.6752C71.2272 16.8463 71.1469 17.049 71.1469 17.284Z" fill="white"/>
<path fill-rule="evenodd" clip-rule="evenodd" d="M71.6948 12.5573C71.8548 12.7173 72.0523 12.7976 72.2873 12.7976C72.5223 12.7976 72.725 12.7175 72.8961 12.5573C73.0668 12.3974 73.1522 12.1998 73.1522 11.9649C73.1522 11.7299 73.0666 11.5272 72.8961 11.3562C72.725 11.1854 72.5223 11.1001 72.2873 11.1001C72.0523 11.1001 71.8548 11.1856 71.6948 11.3562C71.5345 11.5272 71.4545 11.7299 71.4545 11.9649C71.4545 12.1998 71.5343 12.3974 71.6948 12.5573Z" fill="white"/>
<path fill-rule="evenodd" clip-rule="evenodd" d="M85.7186 19.0331C85.2702 19.3319 84.9176 19.6842 84.6614 20.0902C84.4053 20.4958 84.277 20.9229 84.277 21.3717C84.277 21.8201 84.4053 22.2472 84.6614 22.6529C84.9174 23.0589 85.2702 23.4112 85.7186 23.71C86.1671 24.0088 86.6851 24.2438 87.2722 24.4148C87.8599 24.5855 88.4952 24.6709 89.1786 24.6709C89.862 24.6709 90.503 24.5853 91.1009 24.4148C91.6991 24.2438 92.2222 24.0088 92.6708 23.71C93.1193 23.4112 93.472 23.0589 93.7281 22.6529C93.9841 22.2472 94.1125 21.8201 94.1125 21.3717C94.1125 20.9229 93.9841 20.4958 93.7281 20.0902C93.472 19.6842 93.1193 19.3321 92.6708 19.0331C92.2222 18.7341 91.6991 18.4991 91.1009 18.3281C90.503 18.1574 89.862 18.072 89.1786 18.072C88.4952 18.072 87.8599 18.1575 87.2722 18.3281C86.6851 18.4991 86.1671 18.7341 85.7186 19.0331Z" fill="white"/>
<path fill-rule="evenodd" clip-rule="evenodd" d="M85.2971 24.083C85.1264 23.9119 84.9236 23.8269 84.6887 23.8269C84.4537 23.8269 84.2561 23.9121 84.0958 24.083C83.9358 24.2537 83.8555 24.4567 83.8555 24.6917C83.8555 24.9263 83.9356 25.1242 84.0958 25.2841C84.2561 25.4441 84.4537 25.5244 84.6887 25.5244C84.9236 25.5244 85.1264 25.4443 85.2971 25.2841C85.4682 25.1242 85.5537 24.9263 85.5537 24.6917C85.5537 24.4567 85.4682 24.2537 85.2971 24.083Z" fill="white"/>
<path fill-rule="evenodd" clip-rule="evenodd" d="M98.2506 8.73117C98.2506 8.96611 98.3304 9.16365 98.4909 9.32397C98.6509 9.48394 98.8485 9.56428 99.0834 9.56428C99.3184 9.56428 99.5212 9.48412 99.6922 9.32397C99.863 9.16365 99.9483 8.96611 99.9483 8.73117C99.9483 8.49659 99.8628 8.2935 99.6922 8.1228C99.5212 7.95174 99.3184 7.86621 99.0834 7.86621C98.8485 7.86621 98.6509 7.95174 98.4909 8.1228C98.3306 8.2935 98.2506 8.49659 98.2506 8.73117Z" fill="white"/>
<path fill-rule="evenodd" clip-rule="evenodd" d="M122.467 16.6062C122.307 16.7772 122.226 16.9799 122.226 17.2149C122.226 17.4498 122.306 17.6474 122.467 17.8073C122.627 17.9677 122.825 18.0476 123.06 18.0476C123.294 18.0476 123.497 17.9678 123.668 17.8073C123.839 17.6474 123.924 17.4498 123.924 17.2149C123.924 16.9799 123.839 16.7772 123.668 16.6062C123.497 16.4354 123.294 16.3501 123.06 16.3501C122.825 16.3501 122.627 16.4356 122.467 16.6062Z" fill="white"/>
<path fill-rule="evenodd" clip-rule="evenodd" d="M0.832837 0C0.597875 0 0.400316 0.0855308 0.240334 0.256054C0.080352 0.427113 0 0.629844 0 0.864782C0 1.09972 0.080173 1.29727 0.240334 1.45723C0.400316 1.61774 0.597875 1.69754 0.832837 1.69754C1.0678 1.69754 1.27055 1.61774 1.44163 1.45723C1.61235 1.29727 1.69771 1.09972 1.69771 0.864782C1.69771 0.629844 1.61217 0.426934 1.44163 0.256054C1.27055 0.0853519 1.0678 0 0.832837 0Z" fill="white"/>
<path fill-rule="evenodd" clip-rule="evenodd" d="M164.429 25.0688C164.194 25.0688 163.996 25.1544 163.837 25.3251C163.677 25.4961 163.596 25.6989 163.596 25.9338C163.596 26.1687 163.676 26.3663 163.837 26.5263C163.996 26.6868 164.194 26.7666 164.429 26.7666C164.664 26.7666 164.867 26.6868 165.038 26.5263C165.209 26.3663 165.294 26.1687 165.294 25.9338C165.294 25.6989 165.209 25.4961 165.038 25.3251C164.867 25.1544 164.664 25.0688 164.429 25.0688Z" fill="white"/>
<path fill-rule="evenodd" clip-rule="evenodd" d="M172.424 17.5391C172.424 17.774 172.504 17.9716 172.664 18.1315C172.824 18.2915 173.022 18.3719 173.257 18.3719C173.492 18.3719 173.695 18.2917 173.865 18.1315C174.036 17.9716 174.122 17.774 174.122 17.5391C174.122 17.3042 174.036 17.1013 173.865 16.9304C173.694 16.7597 173.492 16.6743 173.257 16.6743C173.022 16.6743 172.824 16.7598 172.664 16.9304C172.504 17.1014 172.424 17.3042 172.424 17.5391Z" fill="white"/>
<path fill-rule="evenodd" clip-rule="evenodd" d="M191.311 9.28511C191.151 9.45617 191.07 9.6589 191.07 9.89384C191.07 10.1288 191.15 10.3263 191.311 10.4863C191.471 10.6468 191.669 10.7266 191.903 10.7266C192.138 10.7266 192.341 10.6468 192.512 10.4863C192.683 10.3263 192.768 10.1288 192.768 9.89384C192.768 9.6589 192.683 9.45617 192.512 9.28511C192.341 9.1144 192.138 9.02905 191.903 9.02905C191.669 9.02905 191.471 9.11458 191.311 9.28511Z" fill="white"/>
<path fill-rule="evenodd" clip-rule="evenodd" d="M199.07 15.6113C198.835 15.6113 198.638 15.6969 198.478 15.8674C198.317 16.0384 198.237 16.2412 198.237 16.4761C198.237 16.711 198.317 16.9086 198.478 17.0686C198.638 17.2285 198.835 17.3089 199.07 17.3089C199.305 17.3089 199.508 17.2287 199.679 17.0686C199.85 16.9086 199.935 16.711 199.935 16.4761C199.935 16.2412 199.85 16.0383 199.679 15.8674C199.508 15.6967 199.305 15.6113 199.07 15.6113Z" fill="white"/>
<path fill-rule="evenodd" clip-rule="evenodd" d="M202.422 22.8999C202.187 22.8999 201.989 22.9854 201.829 23.156C201.669 23.327 201.589 23.5297 201.589 23.7647C201.589 23.9996 201.669 24.1972 201.829 24.3571C201.989 24.5175 202.187 24.5974 202.422 24.5974C202.657 24.5974 202.86 24.5176 203.031 24.3571C203.201 24.1972 203.287 23.9996 203.287 23.7647C203.287 23.5297 203.201 23.327 203.031 23.156C202.86 22.9853 202.657 22.8999 202.422 22.8999Z" fill="white"/>
<defs>
<linearGradient id="paint0_linear_713_907" x1="91.6105" y1="6.19727" x2="91.6105" y2="39.7341" gradientUnits="userSpaceOnUse">
<stop stop-color="#2603FF"/>
<stop offset="1" stop-color="#04F0FF"/>
</linearGradient>
<linearGradient id="paint1_linear_713_907" x1="52.5723" y1="7.16138" x2="52.5723" y2="38.5763" gradientUnits="userSpaceOnUse">
<stop stop-color="#2603FF"/>
<stop offset="1" stop-color="#04F0FF"/>
</linearGradient>
<linearGradient id="paint2_linear_713_907" x1="118.575" y1="14.0366" x2="118.575" y2="40" gradientUnits="userSpaceOnUse">
<stop stop-color="#2603FF"/>
<stop offset="1" stop-color="#04F0FF"/>
</linearGradient>
<linearGradient id="paint3_linear_713_907" x1="169.282" y1="13.4712" x2="169.282" y2="39.1312" gradientUnits="userSpaceOnUse">
<stop stop-color="#2603FF"/>
<stop offset="1" stop-color="#04F0FF"/>
</linearGradient>
<linearGradient id="paint4_linear_713_907" x1="147.212" y1="7.12158" x2="147.212" y2="38.1053" gradientUnits="userSpaceOnUse">
<stop stop-color="#2603FF"/>
<stop offset="1" stop-color="#04F0FF"/>
</linearGradient>
<linearGradient id="paint5_linear_713_907" x1="191.631" y1="7.28833" x2="191.631" y2="37.4253" gradientUnits="userSpaceOnUse">
<stop stop-color="#2603FF"/>
<stop offset="1" stop-color="#04F0FF"/>
</linearGradient>
<linearGradient id="paint6_linear_713_907" x1="71.2047" y1="9.50781" x2="71.2047" y2="39.9407" gradientUnits="userSpaceOnUse">
<stop stop-color="#2603FF"/>
<stop offset="1" stop-color="#04F0FF"/>
</linearGradient>
</defs>
</svg>
