<svg width="34" height="35" viewBox="0 0 34 35" fill="none" xmlns="http://www.w3.org/2000/svg">
<circle cx="17" cy="17.8545" r="16.5" stroke="#0288D1"/>
<path d="M24.2 27.0545H22.53C21.9995 27.0545 21.4908 26.8438 21.1158 26.4687C20.7407 26.0936 20.53 25.5849 20.53 25.0545V19.6845C20.5389 19.4739 20.4753 19.2666 20.3497 19.0973C20.2241 18.928 20.0441 18.807 19.84 18.7545C19.7212 18.7364 19.5999 18.744 19.4844 18.7768C19.3688 18.8096 19.2616 18.8667 19.17 18.9445C19.0757 19.0245 19 19.1241 18.9482 19.2364C18.8964 19.3486 18.8697 19.4708 18.87 19.5945V25.0545C18.87 25.5849 18.6593 26.0936 18.2842 26.4687C17.9091 26.8438 17.4004 27.0545 16.87 27.0545H15.2C14.6695 27.0545 14.1608 26.8438 13.7858 26.4687C13.4107 26.0936 13.2 25.5849 13.2 25.0545V19.5945C13.2 17.8706 13.8848 16.2173 15.1038 14.9983C16.3228 13.7793 17.9761 13.0945 19.7 13.0945C21.4239 13.0945 23.0772 13.7793 24.2962 14.9983C25.5152 16.2173 26.2 17.8706 26.2 19.5945V25.0545C26.2 25.5849 25.9893 26.0936 25.6142 26.4687C25.2391 26.8438 24.7304 27.0545 24.2 27.0545ZM19.7 16.7445C19.8565 16.7346 20.0135 16.7346 20.17 16.7445C20.8414 16.8736 21.4458 17.235 21.8774 17.7653C22.3089 18.2956 22.5399 18.9609 22.53 19.6445V25.0545H24.2V19.5945C24.2 18.401 23.7259 17.2564 22.882 16.4125C22.038 15.5686 20.8935 15.0945 19.7 15.0945C18.5065 15.0945 17.3619 15.5686 16.518 16.4125C15.6741 17.2564 15.2 18.401 15.2 19.5945V25.0545H16.87V19.5945C16.87 18.8421 17.1675 18.1202 17.6976 17.5863C18.2278 17.0524 18.9476 16.7498 19.7 16.7445Z" fill="white"/>
<path d="M10.2 27.0544H8.19998C7.66955 27.0544 7.16084 26.8437 6.78577 26.4687C6.4107 26.0936 6.19998 25.5849 6.19998 25.0544V15.0544C6.19998 14.524 6.4107 14.0153 6.78577 13.6402C7.16084 13.2652 7.66955 13.0544 8.19998 13.0544H10.2C10.7304 13.0544 11.2391 13.2652 11.6142 13.6402C11.9893 14.0153 12.2 14.524 12.2 15.0544V25.0544C12.2 25.5849 11.9893 26.0936 11.6142 26.4687C11.2391 26.8437 10.7304 27.0544 10.2 27.0544ZM8.19998 15.0544V25.0544H10.2V15.0544H8.19998Z" fill="white"/>
<path d="M9.19998 12.0544C8.60664 12.0544 8.02662 11.8785 7.53327 11.5489C7.03993 11.2192 6.65541 10.7507 6.42834 10.2025C6.20128 9.65432 6.14187 9.05112 6.25763 8.46917C6.37338 7.88723 6.65911 7.35268 7.07866 6.93312C7.49822 6.51357 8.03277 6.22784 8.61471 6.11209C9.19666 5.99633 9.79986 6.05574 10.348 6.28281C10.8962 6.50987 11.3647 6.89439 11.6944 7.38773C12.024 7.88108 12.2 8.4611 12.2 9.05444C12.2 9.85009 11.8839 10.6132 11.3213 11.1758C10.7587 11.7384 9.99563 12.0544 9.19998 12.0544ZM9.19998 8.05444C9.0022 8.05444 8.80886 8.11309 8.64441 8.22298C8.47996 8.33286 8.35179 8.48904 8.2761 8.67176C8.20042 8.85449 8.18061 9.05555 8.2192 9.24954C8.25778 9.44352 8.35302 9.6217 8.49288 9.76155C8.63273 9.9014 8.81091 9.99664 9.00489 10.0352C9.19887 10.0738 9.39994 10.054 9.58267 9.97832C9.76539 9.90264 9.92157 9.77446 10.0315 9.61001C10.1413 9.44557 10.2 9.25223 10.2 9.05444C10.2 8.78923 10.0946 8.53487 9.90709 8.34734C9.71955 8.1598 9.4652 8.05444 9.19998 8.05444Z" fill="white"/>
</svg>
