<svg width="12" height="24" viewBox="0 0 12 24" fill="none" xmlns="http://www.w3.org/2000/svg">
<path d="M6 23.25C4.60807 23.2485 3.27358 22.6949 2.28933 21.7107C1.30509 20.7264 0.751488 19.3919 0.749999 18L0.75 4.5C0.75 3.50544 1.14509 2.55161 1.84835 1.84835C2.55161 1.14509 3.50544 0.75 4.5 0.75C5.49456 0.75 6.44839 1.14509 7.15165 1.84835C7.85491 2.55161 8.25 3.50544 8.25 4.5L8.25 18C8.25 18.5967 8.01295 19.169 7.59099 19.591C7.16903 20.0129 6.59674 20.25 6 20.25C5.40326 20.25 4.83097 20.0129 4.40901 19.591C3.98705 19.169 3.75 18.5967 3.75 18L3.75 7.5C3.75 7.30109 3.82902 7.11032 3.96967 6.96967C4.11032 6.82902 4.30109 6.75 4.5 6.75C4.69891 6.75 4.88968 6.82902 5.03033 6.96967C5.17098 7.11032 5.25 7.30109 5.25 7.5L5.25 18C5.25 18.1989 5.32902 18.3897 5.46967 18.5303C5.61032 18.671 5.80109 18.75 6 18.75C6.19891 18.75 6.38968 18.671 6.53033 18.5303C6.67098 18.3897 6.75 18.1989 6.75 18L6.75 4.5C6.75 3.90326 6.51295 3.33097 6.09099 2.90901C5.66903 2.48705 5.09674 2.25 4.5 2.25C3.90326 2.25 3.33097 2.48705 2.90901 2.90901C2.48705 3.33097 2.25 3.90326 2.25 4.5L2.25 18C2.25 18.9946 2.64509 19.9484 3.34835 20.6517C4.05161 21.3549 5.00544 21.75 6 21.75C6.99456 21.75 7.94839 21.3549 8.65165 20.6517C9.35491 19.9484 9.75 18.9946 9.75 18L9.75 7.5C9.75 7.30109 9.82902 7.11032 9.96967 6.96967C10.1103 6.82902 10.3011 6.75 10.5 6.75C10.6989 6.75 10.8897 6.82902 11.0303 6.96967C11.171 7.11032 11.25 7.30109 11.25 7.5L11.25 18C11.2485 19.3919 10.6949 20.7264 9.71067 21.7107C8.72642 22.6949 7.39193 23.2485 6 23.25Z" fill="#D81B60"/>
</svg>
