<svg width="51" height="51" viewBox="0 0 51 51" fill="none" xmlns="http://www.w3.org/2000/svg">
<path d="M13 0H38.3333C45.3177 0 51 5.98133 51 13.3333V48C51 49.0773 50.3819 50.0535 49.4369 50.4642C49.1228 50.6029 48.7935 50.6667 48.4667 50.6667C47.808 50.6667 47.1595 50.3948 46.6756 49.8854L40.5601 43.4479C40.0813 42.9466 39.4454 42.6667 38.7665 42.6667H13C6.0156 42.6667 0.333334 36.6853 0.333334 29.3333V13.3333C0.333334 5.98133 6.0156 0 13 0ZM5.4 29.3333C5.4 33.744 8.80987 37.3333 13 37.3333H38.7665C40.7957 37.3333 42.7059 38.1651 44.1423 39.6771L45.9333 41.5625V13.3333C45.9333 8.92267 42.5235 5.33333 38.3333 5.33333H13C8.80987 5.33333 5.4 8.92267 5.4 13.3333V29.3333Z" fill="white"/>
</svg>
