<svg width="20" height="20" viewBox="0 0 20 20" fill="none" xmlns="http://www.w3.org/2000/svg">
<path d="M14.9608 3C15.5328 3 16.0814 3.22724 16.4859 3.63173C16.8904 4.03622 17.1176 4.58483 17.1176 5.15686V14.9608C17.1176 15.5328 16.8904 16.0814 16.4859 16.4859C16.0814 16.8904 15.5328 17.1176 14.9608 17.1176H5.15686C4.87362 17.1176 4.59315 17.0619 4.33147 16.9535C4.06978 16.8451 3.83201 16.6862 3.63173 16.4859C3.43145 16.2856 3.27257 16.0479 3.16418 15.7862C3.05579 15.5245 3 15.244 3 14.9608V5.15686C3 4.58483 3.22724 4.03622 3.63173 3.63173C4.03622 3.22724 4.58483 3 5.15686 3H14.9608ZM14.9608 4.17647H5.15686C4.61569 4.17647 4.17647 4.61569 4.17647 5.15686V14.9608C4.17647 15.502 4.61569 15.9412 5.15686 15.9412H14.9608C15.502 15.9412 15.9412 15.502 15.9412 14.9608V5.15686C15.9412 4.61569 15.502 4.17647 14.9608 4.17647ZM6.72549 7.70902C7.02353 7.70902 7.26902 7.92941 7.30824 8.21569L7.31373 8.2949V13.3984C7.31352 13.4755 7.29814 13.5517 7.26847 13.6228C7.2388 13.6939 7.19541 13.7585 7.14079 13.8128C7.08616 13.8671 7.02137 13.9102 6.95012 13.9395C6.87886 13.9688 6.80253 13.9837 6.72549 13.9835C6.58365 13.9838 6.44651 13.9327 6.3394 13.8397C6.23229 13.7467 6.16244 13.6181 6.14275 13.4776L6.13726 13.3976V8.29412C6.13726 7.97098 6.40078 7.70902 6.72549 7.70902ZM13.3922 6.14039C13.6902 6.14039 13.9365 6.35608 13.9749 6.63451L13.9804 6.71294V13.4118C13.9794 13.488 13.9633 13.5633 13.9332 13.6333C13.9031 13.7033 13.8595 13.7667 13.8049 13.8199C13.7502 13.873 13.6857 13.9149 13.6149 13.9432C13.5441 13.9714 13.4684 13.9854 13.3922 13.9843C13.2517 13.9858 13.1155 13.9365 13.0084 13.8456C12.9014 13.7547 12.8307 13.6282 12.8094 13.4894L12.8039 13.4118V6.71216C12.8049 6.63594 12.821 6.56066 12.8511 6.49064C12.8812 6.42061 12.9248 6.35721 12.9794 6.30404C13.0341 6.25087 13.0986 6.20899 13.1694 6.18077C13.2403 6.15256 13.3159 6.13936 13.3922 6.14039ZM10.0392 10.0596C10.1775 10.0577 10.3118 10.1058 10.4174 10.1952C10.5229 10.2846 10.5925 10.4092 10.6133 10.5459L10.6196 10.6243L10.6471 13.4063C10.6477 13.5579 10.5882 13.7035 10.4816 13.8113C10.375 13.919 10.23 13.9801 10.0784 13.9812C9.94019 13.983 9.80595 13.9347 9.70045 13.8454C9.59495 13.756 9.5253 13.6316 9.50431 13.4949L9.49804 13.4173L9.47059 10.6353C9.46975 10.4836 9.52917 10.3377 9.63579 10.2298C9.7424 10.1219 9.8875 10.0606 10.0392 10.0596Z" fill="white"/>
</svg>
