<svg width="24" height="25" viewBox="0 0 24 25" fill="none" xmlns="http://www.w3.org/2000/svg">
<g clip-path="url(#clip0_507_1708)">
<path d="M8.51 20.8545H8.43C6.81836 20.8404 5.23002 20.4681 3.78 19.7645C3.51327 19.6392 3.29366 19.4318 3.1533 19.1727C3.01295 18.9136 2.95923 18.6164 3 18.3245C3.04434 18.0307 3.18039 17.7584 3.38871 17.5465C3.59703 17.3345 3.86697 17.1939 4.16 17.1445C5.05861 17.0246 5.92309 16.7217 6.7 16.2545C5.35116 15.1999 4.31275 13.8001 3.69482 12.2033C3.07689 10.6066 2.90245 8.87236 3.19 7.18451C3.22899 6.91717 3.34396 6.66665 3.52125 6.46277C3.69853 6.2589 3.93066 6.11025 4.19 6.03451C4.44231 5.95527 4.71235 5.95189 4.96657 6.02477C5.22079 6.09766 5.448 6.24362 5.62 6.44451C6.204 7.2103 6.93789 7.84907 7.77691 8.32188C8.61592 8.79468 9.54246 9.0916 10.5 9.19451C10.5457 8.01637 11.052 6.90323 11.91 6.09451C12.3384 5.68429 12.8442 5.36342 13.3978 5.15062C13.9515 4.93782 14.5419 4.83733 15.1348 4.85501C15.7277 4.8727 16.3111 5.0082 16.8511 5.25362C17.3911 5.49905 17.8768 5.84948 18.28 6.28451C18.385 6.37738 18.5156 6.43656 18.6546 6.45439C18.7937 6.47222 18.9349 6.44788 19.06 6.38451C19.2984 6.27206 19.5639 6.22973 19.8255 6.26246C20.0871 6.29519 20.334 6.40163 20.5373 6.56936C20.7407 6.73709 20.8922 6.9592 20.9741 7.20977C21.056 7.46034 21.065 7.72904 21 7.98451C20.7694 8.93463 20.3323 9.82231 19.72 10.5845C19.585 13.4293 18.3309 16.1053 16.2309 18.0291C14.131 19.953 11.3557 20.9686 8.51 20.8545ZM8.51 18.8545H8.59C9.75267 18.8945 10.9117 18.7033 11.9999 18.292C13.0881 17.8807 14.0839 17.2574 14.9294 16.4584C15.775 15.6594 16.4535 14.7004 16.9257 13.6372C17.3978 12.574 17.6542 11.4276 17.68 10.2645C17.6965 9.94576 17.828 9.6438 18.05 9.41451C18.2939 9.10576 18.5019 8.77027 18.67 8.41451C18.3097 8.4152 17.9534 8.33984 17.6243 8.19337C17.2951 8.0469 17.0006 7.83261 16.76 7.56451C16.5286 7.33507 16.2537 7.15409 15.9515 7.03218C15.6493 6.91026 15.3258 6.84986 15 6.85451C14.6709 6.846 14.3434 6.90258 14.0362 7.02099C13.729 7.1394 13.4482 7.31731 13.21 7.54451C12.8886 7.84951 12.6529 8.23358 12.5265 8.65828C12.4002 9.08298 12.3876 9.53341 12.49 9.96451L12.75 11.1045L11.58 11.1845C10.3811 11.2823 9.17526 11.1183 8.04601 10.7039C6.91677 10.2895 5.89108 9.63457 5.04 8.78451C5.0035 10.1009 5.3328 11.4016 5.99129 12.5421C6.64979 13.6825 7.61167 14.618 8.77 15.2445L9.72 15.7845L9.09 16.6845C8.40869 17.578 7.47518 18.2468 6.41 18.6045C7.09331 18.7758 7.79557 18.8598 8.5 18.8545H8.51Z" fill="white"/>
</g>
<defs>
<clipPath id="clip0_507_1708">
<rect width="24" height="24" fill="white" transform="translate(0 0.854492)"/>
</clipPath>
</defs>
</svg>
